<?xml version="1.0" encoding="UTF-8" standalone="no"?>
<!DOCTYPE svg PUBLIC "-//W3C//DTD SVG 1.1//EN"
 "http://www.w3.org/Graphics/SVG/1.1/DTD/svg11.dtd">
<!-- Generated by graphviz version 2.50.0 (20211204.2007)
 -->
<!-- Title: pxf_container_image_flow Pages: 1 -->
<svg width="2240pt" height="753pt"
 viewBox="0.00 0.00 2240.00 753.00" xmlns="http://www.w3.org/2000/svg" xmlns:xlink="http://www.w3.org/1999/xlink">
<g id="graph0" class="graph" transform="scale(1 1) rotate(0) translate(4 749)">
<title>pxf_container_image_flow</title>
<polygon fill="white" stroke="transparent" points="-4,4 -4,-749 2236,-749 2236,4 -4,4"/>
<g id="clust1" class="cluster">
<title>cluster_dockerhub</title>
<polygon fill="none" stroke="black" stroke-dasharray="5,2" points="2032,-662 2032,-737 2157,-737 2157,-662 2032,-662"/>
<text text-anchor="middle" x="2094.5" y="-721.8" font-family="Times,serif" font-size="14.00">Official DockerHub</text>
</g>
<g id="clust2" class="cluster">
<title>cluster_gcr_images</title>
<polygon fill="none" stroke="black" stroke-dasharray="5,2" points="282,-662 282,-737 1409,-737 1409,-662 282,-662"/>
<text text-anchor="middle" x="845.5" y="-721.8" font-family="Times,serif" font-size="14.00">GP RelEng Images (gcr.io/data&#45;gpdb&#45;public&#45;images)</text>
</g>
<g id="clust3" class="cluster">
<title>cluster_gcr_images_private</title>
<polygon fill="none" stroke="black" stroke-dasharray="5,2" points="1593,-662 1593,-737 1901,-737 1901,-662 1593,-662"/>
<text text-anchor="middle" x="1747" y="-721.8" font-family="Times,serif" font-size="14.00">GP RelEng Images (gcr.io/data&#45;gpdb&#45;private&#45;images)</text>
</g>
<g id="clust4" class="cluster">
<title>cluster_pxf_dev_base</title>
<polygon fill="none" stroke="black" stroke-dasharray="5,2" points="501,-568 501,-643 1315,-643 1315,-568 501,-568"/>
<text text-anchor="middle" x="908" y="-627.8" font-family="Times,serif" font-size="14.00">pxf&#45;dev&#45;base/cloudbuild.yaml</text>
</g>
<g id="clust5" class="cluster">
<title>cluster_rpmrebuild</title>
<polygon fill="none" stroke="black" stroke-dasharray="5,2" points="1914,-568 1914,-643 2158,-643 2158,-568 1914,-568"/>
<text text-anchor="middle" x="2036" y="-627.8" font-family="Times,serif" font-size="14.00">rpmrebuild/cloudbuild.yaml</text>
</g>
<g id="clust6" class="cluster">
<title>cluster_gcr_data_gpdb_ud</title>
<polygon fill="none" stroke="black" stroke-dasharray="5,2" points="31,-334 31,-535 2224,-535 2224,-334 31,-334"/>
<text text-anchor="middle" x="1127.5" y="-519.8" font-family="Times,serif" font-size="14.00">gcr.io/data&#45;gpdb&#45;ud</text>
</g>
<g id="clust7" class="cluster">
<title>cluster_gpdb_pxf_dev</title>
<polygon fill="none" stroke="black" stroke-dasharray="5,2" points="39,-342 39,-504 1890,-504 1890,-342 39,-342"/>
<text text-anchor="middle" x="964.5" y="-488.8" font-family="Times,serif" font-size="14.00">gpdb&#45;pxf&#45;dev</text>
</g>
<g id="clust8" class="cluster">
<title>cluster_pipelines</title>
<polygon fill="none" stroke="black" stroke-dasharray="5,2" points="778,-211 778,-286 1241,-286 1241,-211 778,-211"/>
<text text-anchor="middle" x="1009.5" y="-270.8" font-family="Times,serif" font-size="14.00">Pipelines</text>
</g>
<g id="clust9" class="cluster">
<title>cluster_local_use_only</title>
<polygon fill="none" stroke="black" stroke-dasharray="5,2" points="8,-8 8,-317 770,-317 770,-8 8,-8"/>
<text text-anchor="middle" x="389" y="-301.8" font-family="Times,serif" font-size="14.00">For local development use</text>
</g>
<g id="clust10" class="cluster">
<title>cluster_pxf_dev_server</title>
<polygon fill="none" stroke="black" stroke-dasharray="5,2" points="470,-211 470,-286 659,-286 659,-211 470,-211"/>
<text text-anchor="middle" x="564.5" y="-270.8" font-family="Times,serif" font-size="14.00">pxf&#45;dev&#45;server/cloudbuild.yaml</text>
</g>
<g id="clust11" class="cluster">
<title>cluster_mapr</title>
<polygon fill="none" stroke="black" stroke-dasharray="5,2" points="324,-211 324,-286 462,-286 462,-211 324,-211"/>
<text text-anchor="middle" x="393" y="-270.8" font-family="Times,serif" font-size="14.00">mapr/cloudbuild.yaml</text>
</g>
<g id="clust12" class="cluster">
<title>cluster_gcr_data_gpdb_ud_mapr</title>
<polygon fill="none" stroke="black" stroke-dasharray="5,2" points="16,-16 16,-178 386,-178 386,-16 16,-16"/>
<text text-anchor="middle" x="201" y="-162.8" font-family="Times,serif" font-size="14.00">MapR Images (gcr.io/data&#45;gpdb&#45;ud)</text>
</g>
<g id="clust13" class="cluster">
<title>cluster_gcr_data_gpdb_ud_hdp2</title>
<polygon fill="none" stroke="black" stroke-dasharray="5,2" points="394,-16 394,-178 762,-178 762,-16 394,-16"/>
<text text-anchor="middle" x="578" y="-162.8" font-family="Times,serif" font-size="14.00">HDP2 (gcr.io/data&#45;gpdb&#45;ud)</text>
</g>
<!-- centos7 -->
<g id="node1" class="node">
<title>centos7</title>
<polygon fill="#268bd2" stroke="black" points="2125,-706 2067,-706 2063,-702 2063,-670 2121,-670 2125,-674 2125,-706"/>
<polyline fill="none" stroke="black" points="2121,-702 2063,-702 "/>
<polyline fill="none" stroke="black" points="2121,-702 2121,-670 "/>
<polyline fill="none" stroke="black" points="2121,-702 2125,-706 "/>
<text text-anchor="middle" x="2094" y="-684.3" font-family="Times,serif" font-size="14.00" fill="white">centos:7</text>
</g>
<!-- rpm_docker_centos7 -->
<g id="node16" class="node">
<title>rpm_docker_centos7</title>
<polygon fill="#fdf6e3" stroke="black" points="2144,-612 2038,-612 2038,-576 2150,-576 2150,-606 2144,-612"/>
<polyline fill="none" stroke="black" points="2144,-612 2144,-606 "/>
<polyline fill="none" stroke="black" points="2150,-606 2144,-606 "/>
<text text-anchor="middle" x="2094" y="-590.3" font-family="Times,serif" font-size="14.00">centos/Dockerfile</text>
</g>
<!-- centos7&#45;&gt;rpm_docker_centos7 -->
<g id="edge22" class="edge">
<title>centos7&#45;&gt;rpm_docker_centos7</title>
<path fill="none" stroke="black" d="M2094,-669.7C2094,-656.46 2094,-637.95 2094,-622.66"/>
<polygon fill="black" stroke="black" points="2097.5,-622.23 2094,-612.23 2090.5,-622.23 2097.5,-622.23"/>
</g>
<!-- gp5_centos7_latest -->
<g id="node2" class="node">
<title>gp5_centos7_latest</title>
<polygon fill="#2aa198" stroke="black" points="665.5,-706 464.5,-706 460.5,-702 460.5,-670 661.5,-670 665.5,-674 665.5,-706"/>
<polyline fill="none" stroke="black" points="661.5,-702 460.5,-702 "/>
<polyline fill="none" stroke="black" points="661.5,-702 661.5,-670 "/>
<polyline fill="none" stroke="black" points="661.5,-702 665.5,-706 "/>
<text text-anchor="middle" x="563" y="-684.3" font-family="Times,serif" font-size="14.00" fill="white">centos&#45;gpdb&#45;dev:7&#45;gcc6.2&#45;llvm3.7</text>
</g>
<!-- gp5_centos7_dockerfile -->
<g id="node9" class="node">
<title>gp5_centos7_dockerfile</title>
<polygon fill="#fdf6e3" stroke="black" points="711.5,-612 622.5,-612 622.5,-576 717.5,-576 717.5,-606 711.5,-612"/>
<polyline fill="none" stroke="black" points="711.5,-612 711.5,-606 "/>
<polyline fill="none" stroke="black" points="717.5,-606 711.5,-606 "/>
<text text-anchor="middle" x="670" y="-590.3" font-family="Times,serif" font-size="14.00">gpdb5/centos7</text>
</g>
<!-- gp5_centos7_latest&#45;&gt;gp5_centos7_dockerfile -->
<g id="edge1" class="edge">
<title>gp5_centos7_latest&#45;&gt;gp5_centos7_dockerfile</title>
<path fill="none" stroke="black" d="M582.88,-669.91C599.59,-655.54 623.66,-634.85 642.27,-618.85"/>
<polygon fill="black" stroke="black" points="644.57,-621.48 649.87,-612.31 640,-616.18 644.57,-621.48"/>
</g>
<!-- gp6_centos7_latest -->
<g id="node3" class="node">
<title>gp6_centos7_latest</title>
<polygon fill="#2aa198" stroke="black" points="442,-706 294,-706 290,-702 290,-670 438,-670 442,-674 442,-706"/>
<polyline fill="none" stroke="black" points="438,-702 290,-702 "/>
<polyline fill="none" stroke="black" points="438,-702 438,-670 "/>
<polyline fill="none" stroke="black" points="438,-702 442,-706 "/>
<text text-anchor="middle" x="366" y="-684.3" font-family="Times,serif" font-size="14.00" fill="white">gpdb6&#45;centos7&#45;test:latest</text>
</g>
<!-- gp6_centos7_dockerfile -->
<g id="node10" class="node">
<title>gp6_centos7_dockerfile</title>
<polygon fill="#fdf6e3" stroke="black" points="598.5,-612 509.5,-612 509.5,-576 604.5,-576 604.5,-606 598.5,-612"/>
<polyline fill="none" stroke="black" points="598.5,-612 598.5,-606 "/>
<polyline fill="none" stroke="black" points="604.5,-606 598.5,-606 "/>
<text text-anchor="middle" x="557" y="-590.3" font-family="Times,serif" font-size="14.00">gpdb6/centos7</text>
</g>
<!-- gp6_centos7_latest&#45;&gt;gp6_centos7_dockerfile -->
<g id="edge4" class="edge">
<title>gp6_centos7_latest&#45;&gt;gp6_centos7_dockerfile</title>
<path fill="none" stroke="black" d="M401.48,-669.91C432.74,-654.85 478.43,-632.85 512.2,-616.58"/>
<polygon fill="black" stroke="black" points="513.9,-619.65 521.39,-612.15 510.86,-613.34 513.9,-619.65"/>
</g>
<!-- gp6_ubuntu18_latest -->
<g id="node4" class="node">
<title>gp6_ubuntu18_latest</title>
<polygon fill="#2aa198" stroke="black" points="862.5,-706 687.5,-706 683.5,-702 683.5,-670 858.5,-670 862.5,-674 862.5,-706"/>
<polyline fill="none" stroke="black" points="858.5,-702 683.5,-702 "/>
<polyline fill="none" stroke="black" points="858.5,-702 858.5,-670 "/>
<polyline fill="none" stroke="black" points="858.5,-702 862.5,-706 "/>
<text text-anchor="middle" x="773" y="-684.3" font-family="Times,serif" font-size="14.00" fill="white">gpdb6&#45;ubuntu18.04&#45;test:latest</text>
</g>
<!-- gp6_ubuntu18_dockerfile -->
<g id="node12" class="node">
<title>gp6_ubuntu18_dockerfile</title>
<polygon fill="#fdf6e3" stroke="black" points="852,-612 736,-612 736,-576 858,-576 858,-606 852,-612"/>
<polyline fill="none" stroke="black" points="852,-612 852,-606 "/>
<polyline fill="none" stroke="black" points="858,-606 852,-606 "/>
<text text-anchor="middle" x="797" y="-590.3" font-family="Times,serif" font-size="14.00">gpdb6/ubuntu18.04</text>
</g>
<!-- gp6_ubuntu18_latest&#45;&gt;gp6_ubuntu18_dockerfile -->
<g id="edge10" class="edge">
<title>gp6_ubuntu18_latest&#45;&gt;gp6_ubuntu18_dockerfile</title>
<path fill="none" stroke="black" d="M777.51,-669.7C781,-656.33 785.89,-637.59 789.9,-622.22"/>
<polygon fill="black" stroke="black" points="793.37,-622.79 792.51,-612.23 786.6,-621.02 793.37,-622.79"/>
</g>
<!-- gp6_oel7_latest -->
<g id="node5" class="node">
<title>gp6_oel7_latest</title>
<polygon fill="#2aa198" stroke="black" points="1015,-706 885,-706 881,-702 881,-670 1011,-670 1015,-674 1015,-706"/>
<polyline fill="none" stroke="black" points="1011,-702 881,-702 "/>
<polyline fill="none" stroke="black" points="1011,-702 1011,-670 "/>
<polyline fill="none" stroke="black" points="1011,-702 1015,-706 "/>
<text text-anchor="middle" x="948" y="-684.3" font-family="Times,serif" font-size="14.00" fill="white">gpdb6&#45;oel7&#45;test:latest</text>
</g>
<!-- gp6_oel7_dockerfile -->
<g id="node13" class="node">
<title>gp6_oel7_dockerfile</title>
<polygon fill="#fdf6e3" stroke="black" points="947.5,-612 876.5,-612 876.5,-576 953.5,-576 953.5,-606 947.5,-612"/>
<polyline fill="none" stroke="black" points="947.5,-612 947.5,-606 "/>
<polyline fill="none" stroke="black" points="953.5,-606 947.5,-606 "/>
<text text-anchor="middle" x="915" y="-590.3" font-family="Times,serif" font-size="14.00">gpdb6/oel7</text>
</g>
<!-- gp6_oel7_latest&#45;&gt;gp6_oel7_dockerfile -->
<g id="edge13" class="edge">
<title>gp6_oel7_latest&#45;&gt;gp6_oel7_dockerfile</title>
<path fill="none" stroke="black" d="M941.79,-669.7C936.95,-656.2 930.15,-637.23 924.6,-621.78"/>
<polygon fill="black" stroke="black" points="927.85,-620.46 921.18,-612.23 921.26,-622.82 927.85,-620.46"/>
</g>
<!-- gp7_centos7_latest -->
<g id="node6" class="node">
<title>gp7_centos7_latest</title>
<polygon fill="#2aa198" stroke="black" points="1203,-706 1037,-706 1033,-702 1033,-670 1199,-670 1203,-674 1203,-706"/>
<polyline fill="none" stroke="black" points="1199,-702 1033,-702 "/>
<polyline fill="none" stroke="black" points="1199,-702 1199,-670 "/>
<polyline fill="none" stroke="black" points="1199,-702 1203,-706 "/>
<text text-anchor="middle" x="1118" y="-684.3" font-family="Times,serif" font-size="14.00" fill="white">gpdb7&#45;centos7&#45;test:net&#45;tools</text>
</g>
<!-- gp7_centos7_dockerfile -->
<g id="node14" class="node">
<title>gp7_centos7_dockerfile</title>
<polygon fill="#fdf6e3" stroke="black" points="1060.5,-612 971.5,-612 971.5,-576 1066.5,-576 1066.5,-606 1060.5,-612"/>
<polyline fill="none" stroke="black" points="1060.5,-612 1060.5,-606 "/>
<polyline fill="none" stroke="black" points="1066.5,-606 1060.5,-606 "/>
<text text-anchor="middle" x="1019" y="-590.3" font-family="Times,serif" font-size="14.00">gpdb7/centos7</text>
</g>
<!-- gp7_centos7_latest&#45;&gt;gp7_centos7_dockerfile -->
<g id="edge16" class="edge">
<title>gp7_centos7_latest&#45;&gt;gp7_centos7_dockerfile</title>
<path fill="none" stroke="black" d="M1099.38,-669.7C1084.03,-655.43 1062.09,-635.04 1045,-619.16"/>
<polygon fill="black" stroke="black" points="1047.25,-616.47 1037.54,-612.23 1042.48,-621.6 1047.25,-616.47"/>
</g>
<!-- gp7_ubuntu18_latest -->
<g id="node7" class="node">
<title>gp7_ubuntu18_latest</title>
<polygon fill="#2aa198" stroke="black" points="1400.5,-706 1225.5,-706 1221.5,-702 1221.5,-670 1396.5,-670 1400.5,-674 1400.5,-706"/>
<polyline fill="none" stroke="black" points="1396.5,-702 1221.5,-702 "/>
<polyline fill="none" stroke="black" points="1396.5,-702 1396.5,-670 "/>
<polyline fill="none" stroke="black" points="1396.5,-702 1400.5,-706 "/>
<text text-anchor="middle" x="1311" y="-684.3" font-family="Times,serif" font-size="14.00" fill="white">gpdb7&#45;ubuntu18.04&#45;test:latest</text>
</g>
<!-- gp7_ubuntu18_dockerfile -->
<g id="node15" class="node">
<title>gp7_ubuntu18_dockerfile</title>
<polygon fill="#fdf6e3" stroke="black" points="1201,-612 1085,-612 1085,-576 1207,-576 1207,-606 1201,-612"/>
<polyline fill="none" stroke="black" points="1201,-612 1201,-606 "/>
<polyline fill="none" stroke="black" points="1207,-606 1201,-606 "/>
<text text-anchor="middle" x="1146" y="-590.3" font-family="Times,serif" font-size="14.00">gpdb7/ubuntu18.04</text>
</g>
<!-- gp7_ubuntu18_latest&#45;&gt;gp7_ubuntu18_dockerfile -->
<g id="edge19" class="edge">
<title>gp7_ubuntu18_latest&#45;&gt;gp7_ubuntu18_dockerfile</title>
<path fill="none" stroke="black" d="M1270.03,-669.83C1253,-662.23 1233.22,-652.8 1216,-643 1202.81,-635.49 1188.9,-626.26 1176.99,-617.9"/>
<polygon fill="black" stroke="black" points="1178.88,-614.95 1168.71,-612 1174.82,-620.65 1178.88,-614.95"/>
</g>
<!-- gp6_rhel8_latest -->
<g id="node8" class="node">
<title>gp6_rhel8_latest</title>
<polygon fill="#2aa198" stroke="black" points="1816,-706 1682,-706 1678,-702 1678,-670 1812,-670 1816,-674 1816,-706"/>
<polyline fill="none" stroke="black" points="1812,-702 1678,-702 "/>
<polyline fill="none" stroke="black" points="1812,-702 1812,-670 "/>
<polyline fill="none" stroke="black" points="1812,-702 1816,-706 "/>
<text text-anchor="middle" x="1747" y="-684.3" font-family="Times,serif" font-size="14.00" fill="white">gpdb6&#45;rhel8&#45;test:latest</text>
</g>
<!-- gp6_rhel8_dockerfile -->
<g id="node11" class="node">
<title>gp6_rhel8_dockerfile</title>
<polygon fill="#fdf6e3" stroke="black" points="1301,-612 1225,-612 1225,-576 1307,-576 1307,-606 1301,-612"/>
<polyline fill="none" stroke="black" points="1301,-612 1301,-606 "/>
<polyline fill="none" stroke="black" points="1307,-606 1301,-606 "/>
<text text-anchor="middle" x="1266" y="-590.3" font-family="Times,serif" font-size="14.00">gpdb6/rhel8</text>
</g>
<!-- gp6_rhel8_latest&#45;&gt;gp6_rhel8_dockerfile -->
<g id="edge7" class="edge">
<title>gp6_rhel8_latest&#45;&gt;gp6_rhel8_dockerfile</title>
<path fill="none" stroke="black" d="M1677.83,-673.77C1580.05,-655.07 1403.7,-621.34 1316.97,-604.75"/>
<polygon fill="black" stroke="black" points="1317.58,-601.3 1307.1,-602.86 1316.26,-608.18 1317.58,-601.3"/>
</g>
<!-- rpm_docker_rhel8 -->
<g id="node17" class="node">
<title>rpm_docker_rhel8</title>
<polygon fill="#fdf6e3" stroke="black" points="2014,-612 1922,-612 1922,-576 2020,-576 2020,-606 2014,-612"/>
<polyline fill="none" stroke="black" points="2014,-612 2014,-606 "/>
<polyline fill="none" stroke="black" points="2020,-606 2014,-606 "/>
<text text-anchor="middle" x="1971" y="-590.3" font-family="Times,serif" font-size="14.00">rhel/Dockerfile</text>
</g>
<!-- gp6_rhel8_latest&#45;&gt;rpm_docker_rhel8 -->
<g id="edge24" class="edge">
<title>gp6_rhel8_latest&#45;&gt;rpm_docker_rhel8</title>
<path fill="none" stroke="black" d="M1788.61,-669.91C1825.74,-654.66 1880.23,-632.28 1919.98,-615.96"/>
<polygon fill="black" stroke="black" points="1921.32,-619.19 1929.24,-612.15 1918.66,-612.71 1921.32,-619.19"/>
</g>
<!-- gp5_centos7_pxf_sha -->
<g id="node18" class="node">
<title>gp5_centos7_pxf_sha</title>
<polygon fill="none" stroke="black" points="551.5,-473 308.5,-473 308.5,-437 551.5,-437 551.5,-473"/>
<text text-anchor="middle" x="430" y="-451.3" font-family="Times,serif" font-size="14.00">gpdb5&#45;centos7&#45;test&#45;pxf:$COMMIT_SHA</text>
</g>
<!-- gp5_centos7_dockerfile&#45;&gt;gp5_centos7_pxf_sha -->
<g id="edge2" class="edge">
<title>gp5_centos7_dockerfile&#45;&gt;gp5_centos7_pxf_sha</title>
<path fill="none" stroke="black" d="M636.84,-575.94C615.11,-564.62 586.17,-549.27 561,-535 528.55,-516.6 492.28,-494.61 466.15,-478.51"/>
<polygon fill="black" stroke="black" points="467.7,-475.36 457.35,-473.08 464.02,-481.31 467.7,-475.36"/>
<text text-anchor="middle" x="635" y="-546.8" font-family="Times,serif" font-size="14.00">CloudBuild</text>
</g>
<!-- gp6_centos7_pxf_sha -->
<g id="node19" class="node">
<title>gp6_centos7_pxf_sha</title>
<polygon fill="none" stroke="black" points="290.5,-473 47.5,-473 47.5,-437 290.5,-437 290.5,-473"/>
<text text-anchor="middle" x="169" y="-451.3" font-family="Times,serif" font-size="14.00">gpdb6&#45;centos7&#45;test&#45;pxf:$COMMIT_SHA</text>
</g>
<!-- gp6_centos7_dockerfile&#45;&gt;gp6_centos7_pxf_sha -->
<g id="edge5" class="edge">
<title>gp6_centos7_dockerfile&#45;&gt;gp6_centos7_pxf_sha</title>
<path fill="none" stroke="black" d="M509.48,-587.04C456.65,-579.35 369.46,-563.44 299,-535 263.29,-520.59 226.09,-496.97 200.67,-479.3"/>
<polygon fill="black" stroke="black" points="202.39,-476.23 192.2,-473.32 198.36,-481.95 202.39,-476.23"/>
<text text-anchor="middle" x="400" y="-546.8" font-family="Times,serif" font-size="14.00">CloudBuild</text>
</g>
<!-- gp6_rhel8_pxf_sha -->
<g id="node20" class="node">
<title>gp6_rhel8_pxf_sha</title>
<polygon fill="none" stroke="black" points="1332,-473 1102,-473 1102,-437 1332,-437 1332,-473"/>
<text text-anchor="middle" x="1217" y="-451.3" font-family="Times,serif" font-size="14.00">gpdb6&#45;rhel8&#45;test&#45;pxf:$COMMIT_SHA</text>
</g>
<!-- gp6_rhel8_dockerfile&#45;&gt;gp6_rhel8_pxf_sha -->
<g id="edge8" class="edge">
<title>gp6_rhel8_dockerfile&#45;&gt;gp6_rhel8_pxf_sha</title>
<path fill="none" stroke="black" d="M1259.89,-575.93C1251.53,-552.54 1236.43,-510.33 1226.56,-482.73"/>
<polygon fill="black" stroke="black" points="1229.85,-481.53 1223.18,-473.29 1223.26,-483.88 1229.85,-481.53"/>
<text text-anchor="middle" x="1284" y="-546.8" font-family="Times,serif" font-size="14.00">CloudBuild</text>
</g>
<!-- gp6_ubuntu18_pxf_sha -->
<g id="node21" class="node">
<title>gp6_ubuntu18_pxf_sha</title>
<polygon fill="none" stroke="black" points="840,-473 570,-473 570,-437 840,-437 840,-473"/>
<text text-anchor="middle" x="705" y="-451.3" font-family="Times,serif" font-size="14.00">gpdb6&#45;ubuntu18.04&#45;test&#45;pxf:$COMMIT_SHA</text>
</g>
<!-- gp6_ubuntu18_dockerfile&#45;&gt;gp6_ubuntu18_pxf_sha -->
<g id="edge11" class="edge">
<title>gp6_ubuntu18_dockerfile&#45;&gt;gp6_ubuntu18_pxf_sha</title>
<path fill="none" stroke="black" d="M785.53,-575.93C769.63,-552.24 740.73,-509.21 722.22,-481.65"/>
<polygon fill="black" stroke="black" points="725.09,-479.64 716.61,-473.29 719.28,-483.54 725.09,-479.64"/>
<text text-anchor="middle" x="804" y="-546.8" font-family="Times,serif" font-size="14.00">CloudBuild</text>
</g>
<!-- gp6_oel7_pxf_sha -->
<g id="node22" class="node">
<title>gp6_oel7_pxf_sha</title>
<polygon fill="none" stroke="black" points="1083.5,-473 858.5,-473 858.5,-437 1083.5,-437 1083.5,-473"/>
<text text-anchor="middle" x="971" y="-451.3" font-family="Times,serif" font-size="14.00">gpdb6&#45;oel7&#45;test&#45;pxf:$COMMIT_SHA</text>
</g>
<!-- gp6_oel7_dockerfile&#45;&gt;gp6_oel7_pxf_sha -->
<g id="edge14" class="edge">
<title>gp6_oel7_dockerfile&#45;&gt;gp6_oel7_pxf_sha</title>
<path fill="none" stroke="black" d="M921.98,-575.93C931.54,-552.54 948.79,-510.33 960.07,-482.73"/>
<polygon fill="black" stroke="black" points="963.39,-483.87 963.93,-473.29 956.91,-481.22 963.39,-483.87"/>
<text text-anchor="middle" x="966" y="-546.8" font-family="Times,serif" font-size="14.00">CloudBuild</text>
</g>
<!-- gp7_centos7_pxf_sha -->
<g id="node23" class="node">
<title>gp7_centos7_pxf_sha</title>
<polygon fill="none" stroke="black" points="1593.5,-473 1350.5,-473 1350.5,-437 1593.5,-437 1593.5,-473"/>
<text text-anchor="middle" x="1472" y="-451.3" font-family="Times,serif" font-size="14.00">gpdb7&#45;centos7&#45;test&#45;pxf:$COMMIT_SHA</text>
</g>
<!-- gp7_centos7_dockerfile&#45;&gt;gp7_centos7_pxf_sha -->
<g id="edge17" class="edge">
<title>gp7_centos7_dockerfile&#45;&gt;gp7_centos7_pxf_sha</title>
<path fill="none" stroke="black" d="M1055.42,-575.89C1062.18,-573.04 1069.24,-570.27 1076,-568 1121.06,-552.84 1132.94,-549.76 1180,-543 1215.46,-537.9 1306.74,-545.45 1341,-535 1379.11,-523.37 1417.55,-498.24 1442.84,-479.42"/>
<polygon fill="black" stroke="black" points="1445.04,-482.15 1450.89,-473.31 1440.81,-476.57 1445.04,-482.15"/>
<text text-anchor="middle" x="1212" y="-546.8" font-family="Times,serif" font-size="14.00">CloudBuild</text>
</g>
<!-- gp7_ubuntu18_pxf_sha -->
<g id="node24" class="node">
<title>gp7_ubuntu18_pxf_sha</title>
<polygon fill="none" stroke="black" points="1882,-473 1612,-473 1612,-437 1882,-437 1882,-473"/>
<text text-anchor="middle" x="1747" y="-451.3" font-family="Times,serif" font-size="14.00">gpdb7&#45;ubuntu18.04&#45;test&#45;pxf:$COMMIT_SHA</text>
</g>
<!-- gp7_ubuntu18_dockerfile&#45;&gt;gp7_ubuntu18_pxf_sha -->
<g id="edge20" class="edge">
<title>gp7_ubuntu18_dockerfile&#45;&gt;gp7_ubuntu18_pxf_sha</title>
<path fill="none" stroke="black" d="M1188.43,-575.88C1197.41,-572.81 1206.92,-569.97 1216,-568 1258.17,-558.83 1561.69,-547.48 1603,-535 1644.13,-522.57 1686.74,-497.4 1714.83,-478.8"/>
<polygon fill="black" stroke="black" points="1717.08,-481.5 1723.42,-473.01 1713.17,-475.7 1717.08,-481.5"/>
<text text-anchor="middle" x="1575" y="-546.8" font-family="Times,serif" font-size="14.00">CloudBuild</text>
</g>
<!-- rpm_centos7_latest -->
<g id="node32" class="node">
<title>rpm_centos7_latest</title>
<polygon fill="#6c71c4" stroke="black" points="2215.5,-473 2060.5,-473 2060.5,-437 2215.5,-437 2215.5,-473"/>
<text text-anchor="middle" x="2138" y="-451.3" font-family="Times,serif" font-size="14.00" fill="white">rpmrebuild&#45;centos7:latest</text>
</g>
<!-- rpm_docker_centos7&#45;&gt;rpm_centos7_latest -->
<g id="edge23" class="edge">
<title>rpm_docker_centos7&#45;&gt;rpm_centos7_latest</title>
<path fill="none" stroke="black" d="M2099.48,-575.93C2106.96,-552.65 2120.43,-510.7 2129.3,-483.1"/>
<polygon fill="black" stroke="black" points="2132.72,-483.88 2132.45,-473.29 2126.06,-481.74 2132.72,-483.88"/>
</g>
<!-- rpm_rhel8_latest -->
<g id="node33" class="node">
<title>rpm_rhel8_latest</title>
<polygon fill="#6c71c4" stroke="black" points="2042,-473 1900,-473 1900,-437 2042,-437 2042,-473"/>
<text text-anchor="middle" x="1971" y="-451.3" font-family="Times,serif" font-size="14.00" fill="white">rpmrebuild&#45;rhel8:latest</text>
</g>
<!-- rpm_docker_rhel8&#45;&gt;rpm_rhel8_latest -->
<g id="edge25" class="edge">
<title>rpm_docker_rhel8&#45;&gt;rpm_rhel8_latest</title>
<path fill="none" stroke="black" d="M1971,-575.93C1971,-552.75 1971,-511.06 1971,-483.46"/>
<polygon fill="black" stroke="black" points="1974.5,-483.29 1971,-473.29 1967.5,-483.29 1974.5,-483.29"/>
</g>
<!-- gp5_centos7_pxf_latest -->
<g id="node25" class="node">
<title>gp5_centos7_pxf_latest</title>
<polygon fill="#6c71c4" stroke="black" points="794,-386 620,-386 620,-350 794,-350 794,-386"/>
<text text-anchor="middle" x="707" y="-364.3" font-family="Times,serif" font-size="14.00" fill="white">gpdb5&#45;centos7&#45;test&#45;pxf:latest</text>
</g>
<!-- gp5_centos7_pxf_sha&#45;&gt;gp5_centos7_pxf_latest -->
<g id="edge3" class="edge">
<title>gp5_centos7_pxf_sha&#45;&gt;gp5_centos7_pxf_latest</title>
<path fill="none" stroke="black" d="M485.72,-436.9C530.8,-423.07 594.36,-403.56 641.8,-389.01"/>
<polygon fill="black" stroke="black" points="642.83,-392.35 651.37,-386.07 640.78,-385.66 642.83,-392.35"/>
<text text-anchor="middle" x="652" y="-407.8" font-family="Times,serif" font-size="14.00">tag (concourse pipeline)</text>
</g>
<!-- gp6_centos7_pxf_latest -->
<g id="node26" class="node">
<title>gp6_centos7_pxf_latest</title>
<polygon fill="#6c71c4" stroke="black" points="602,-386 428,-386 428,-350 602,-350 602,-386"/>
<text text-anchor="middle" x="515" y="-364.3" font-family="Times,serif" font-size="14.00" fill="white">gpdb6&#45;centos7&#45;test&#45;pxf:latest</text>
</g>
<!-- gp6_centos7_pxf_sha&#45;&gt;gp6_centos7_pxf_latest -->
<g id="edge6" class="edge">
<title>gp6_centos7_pxf_sha&#45;&gt;gp6_centos7_pxf_latest</title>
<path fill="none" stroke="black" d="M238.6,-436.9C295.62,-422.89 376.3,-403.07 435.78,-388.46"/>
<polygon fill="black" stroke="black" points="436.63,-391.86 445.51,-386.07 434.96,-385.06 436.63,-391.86"/>
<text text-anchor="middle" x="429" y="-407.8" font-family="Times,serif" font-size="14.00">tag (concourse pipeline)</text>
</g>
<!-- gp6_rhel8_pxf_latest -->
<g id="node27" class="node">
<title>gp6_rhel8_pxf_latest</title>
<polygon fill="#6c71c4" stroke="black" points="1192.5,-386 1031.5,-386 1031.5,-350 1192.5,-350 1192.5,-386"/>
<text text-anchor="middle" x="1112" y="-364.3" font-family="Times,serif" font-size="14.00" fill="white">gpdb6&#45;rhel8&#45;test&#45;pxf:latest</text>
</g>
<!-- gp6_rhel8_pxf_sha&#45;&gt;gp6_rhel8_pxf_latest -->
<g id="edge9" class="edge">
<title>gp6_rhel8_pxf_sha&#45;&gt;gp6_rhel8_pxf_latest</title>
<path fill="none" stroke="black" d="M1147.58,-436.8C1138.73,-432.2 1130.51,-426.37 1124,-419 1118.43,-412.69 1115.34,-404.26 1113.65,-396.11"/>
<polygon fill="black" stroke="black" points="1117.1,-395.52 1112.18,-386.13 1110.18,-396.54 1117.1,-395.52"/>
<text text-anchor="middle" x="1190" y="-407.8" font-family="Times,serif" font-size="14.00">tag (concourse pipeline)</text>
</g>
<!-- gp6_ubuntu18_pxf_latest -->
<g id="node28" class="node">
<title>gp6_ubuntu18_pxf_latest</title>
<polygon fill="#6c71c4" stroke="black" points="1013.5,-386 812.5,-386 812.5,-350 1013.5,-350 1013.5,-386"/>
<text text-anchor="middle" x="913" y="-364.3" font-family="Times,serif" font-size="14.00" fill="white">gpdb6&#45;ubuntu18.04&#45;test&#45;pxf:latest</text>
</g>
<!-- gp6_ubuntu18_pxf_sha&#45;&gt;gp6_ubuntu18_pxf_latest -->
<g id="edge12" class="edge">
<title>gp6_ubuntu18_pxf_sha&#45;&gt;gp6_ubuntu18_pxf_latest</title>
<path fill="none" stroke="black" d="M747.09,-436.8C780.19,-423.27 826.43,-404.38 861.69,-389.97"/>
<polygon fill="black" stroke="black" points="863.39,-393.05 871.33,-386.03 860.75,-386.57 863.39,-393.05"/>
<text text-anchor="middle" x="887" y="-407.8" font-family="Times,serif" font-size="14.00">tag (concourse pipeline)</text>
</g>
<!-- gp6_oel7_pxf_latest -->
<g id="node29" class="node">
<title>gp6_oel7_pxf_latest</title>
<polygon fill="#6c71c4" stroke="black" points="1367,-386 1211,-386 1211,-350 1367,-350 1367,-386"/>
<text text-anchor="middle" x="1289" y="-364.3" font-family="Times,serif" font-size="14.00" fill="white">gpdb6&#45;oel7&#45;test&#45;pxf:latest</text>
</g>
<!-- gp6_oel7_pxf_sha&#45;&gt;gp6_oel7_pxf_latest -->
<g id="edge15" class="edge">
<title>gp6_oel7_pxf_sha&#45;&gt;gp6_oel7_pxf_latest</title>
<path fill="none" stroke="black" d="M1083.66,-438.18C1086.8,-437.78 1089.92,-437.38 1093,-437 1129.16,-432.48 1224.91,-438.01 1256,-419 1265.09,-413.44 1272.19,-404.33 1277.43,-395.39"/>
<polygon fill="black" stroke="black" points="1280.66,-396.78 1282.24,-386.3 1274.47,-393.51 1280.66,-396.78"/>
<text text-anchor="middle" x="1337" y="-407.8" font-family="Times,serif" font-size="14.00">tag (concourse pipeline)</text>
</g>
<!-- gp7_centos7_pxf_latest -->
<g id="node30" class="node">
<title>gp7_centos7_pxf_latest</title>
<polygon fill="#6c71c4" stroke="black" points="1559,-386 1385,-386 1385,-350 1559,-350 1559,-386"/>
<text text-anchor="middle" x="1472" y="-364.3" font-family="Times,serif" font-size="14.00" fill="white">gpdb7&#45;centos7&#45;test&#45;pxf:latest</text>
</g>
<!-- gp7_centos7_pxf_sha&#45;&gt;gp7_centos7_pxf_latest -->
<g id="edge18" class="edge">
<title>gp7_centos7_pxf_sha&#45;&gt;gp7_centos7_pxf_latest</title>
<path fill="none" stroke="black" d="M1472,-436.8C1472,-425.16 1472,-409.55 1472,-396.24"/>
<polygon fill="black" stroke="black" points="1475.5,-396.18 1472,-386.18 1468.5,-396.18 1475.5,-396.18"/>
<text text-anchor="middle" x="1538" y="-407.8" font-family="Times,serif" font-size="14.00">tag (concourse pipeline)</text>
</g>
<!-- gp7_ubuntu18_pxf_latest -->
<g id="node31" class="node">
<title>gp7_ubuntu18_pxf_latest</title>
<polygon fill="#6c71c4" stroke="black" points="1778.5,-386 1577.5,-386 1577.5,-350 1778.5,-350 1778.5,-386"/>
<text text-anchor="middle" x="1678" y="-364.3" font-family="Times,serif" font-size="14.00" fill="white">gpdb7&#45;ubuntu18.04&#45;test&#45;pxf:latest</text>
</g>
<!-- gp7_ubuntu18_pxf_sha&#45;&gt;gp7_ubuntu18_pxf_latest -->
<g id="edge21" class="edge">
<title>gp7_ubuntu18_pxf_sha&#45;&gt;gp7_ubuntu18_pxf_latest</title>
<path fill="none" stroke="black" d="M1728.52,-436.81C1722.98,-431.32 1717.04,-425.09 1712,-419 1705.78,-411.48 1699.59,-402.82 1694.23,-394.85"/>
<polygon fill="black" stroke="black" points="1696.99,-392.68 1688.58,-386.24 1691.14,-396.52 1696.99,-392.68"/>
<text text-anchor="middle" x="1778" y="-407.8" font-family="Times,serif" font-size="14.00">tag (concourse pipeline)</text>
</g>
<!-- certification -->
<g id="node34" class="node">
<title>certification</title>
<polygon fill="#d33682" stroke="black" points="953.5,-255 872.5,-255 872.5,-219 953.5,-219 953.5,-255"/>
<text text-anchor="middle" x="913" y="-233.3" font-family="Times,serif" font-size="14.00" fill="white">certification</text>
</g>
<!-- gp5_centos7_pxf_latest&#45;&gt;certification -->
<g id="edge33" class="edge">
<title>gp5_centos7_pxf_latest&#45;&gt;certification</title>
<path fill="none" stroke="black" d="M755.7,-349.93C771.1,-344.67 788.22,-338.96 804,-334 830.04,-325.83 841.17,-333.37 863,-317 880.8,-303.65 893.88,-281.94 902.18,-264.66"/>
<polygon fill="black" stroke="black" points="905.58,-265.64 906.52,-255.09 899.2,-262.75 905.58,-265.64"/>
</g>
<!-- build -->
<g id="node37" class="node">
<title>build</title>
<polygon fill="#d33682" stroke="black" points="1232.5,-255 1165.5,-255 1165.5,-219 1232.5,-219 1232.5,-255"/>
<text text-anchor="middle" x="1199" y="-233.3" font-family="Times,serif" font-size="14.00" fill="white">pxf&#45;build</text>
</g>
<!-- gp5_centos7_pxf_latest&#45;&gt;build -->
<g id="edge34" class="edge">
<title>gp5_centos7_pxf_latest&#45;&gt;build</title>
<path fill="none" stroke="black" d="M748.3,-349.94C765.26,-343.73 785.27,-337.41 804,-334 842.63,-326.97 1124.26,-338.69 1157,-317 1175.05,-305.04 1185.9,-282.68 1192.03,-264.79"/>
<polygon fill="black" stroke="black" points="1195.41,-265.74 1195.05,-255.15 1188.72,-263.65 1195.41,-265.74"/>
</g>
<!-- pr -->
<g id="node38" class="node">
<title>pr</title>
<polygon fill="#d33682" stroke="black" points="1147.5,-255 1044.5,-255 1044.5,-219 1147.5,-219 1147.5,-255"/>
<text text-anchor="middle" x="1096" y="-233.3" font-family="Times,serif" font-size="14.00" fill="white">pxf_pr_pipeline</text>
</g>
<!-- gp5_centos7_pxf_latest&#45;&gt;pr -->
<g id="edge35" class="edge">
<title>gp5_centos7_pxf_latest&#45;&gt;pr</title>
<path fill="none" stroke="black" d="M749.33,-349.99C766.09,-343.94 785.7,-337.72 804,-334 854.44,-323.74 989.67,-341.38 1035,-317 1056.7,-305.33 1073.12,-282.25 1083.42,-264.03"/>
<polygon fill="black" stroke="black" points="1086.6,-265.5 1088.25,-255.04 1080.44,-262.19 1086.6,-265.5"/>
</g>
<!-- mapr_dockerfile -->
<g id="node40" class="node">
<title>mapr_dockerfile</title>
<polygon fill="#fdf6e3" stroke="black" points="448,-255 380,-255 380,-219 454,-219 454,-249 448,-255"/>
<polyline fill="none" stroke="black" points="448,-255 448,-249 "/>
<polyline fill="none" stroke="black" points="454,-249 448,-249 "/>
<text text-anchor="middle" x="417" y="-233.3" font-family="Times,serif" font-size="14.00">Dockerfile</text>
</g>
<!-- gp5_centos7_pxf_latest&#45;&gt;mapr_dockerfile -->
<g id="edge26" class="edge">
<title>gp5_centos7_pxf_latest&#45;&gt;mapr_dockerfile</title>
<path fill="none" stroke="black" d="M663.6,-349.87C647.33,-344.04 628.53,-337.99 611,-334 547.73,-319.59 520.76,-351.8 466,-317 446.92,-304.87 434.05,-282.37 426.31,-264.47"/>
<polygon fill="black" stroke="black" points="429.51,-263.06 422.53,-255.1 423.02,-265.68 429.51,-263.06"/>
</g>
<!-- gp6_centos7_pxf_latest&#45;&gt;certification -->
<g id="edge36" class="edge">
<title>gp6_centos7_pxf_latest&#45;&gt;certification</title>
<path fill="none" stroke="black" d="M556.87,-349.92C573.45,-343.87 592.86,-337.66 611,-334 638.51,-328.45 838.89,-331.35 863,-317 882.53,-305.37 895.66,-282.82 903.54,-264.78"/>
<polygon fill="black" stroke="black" points="906.87,-265.9 907.39,-255.32 900.38,-263.26 906.87,-265.9"/>
</g>
<!-- perf -->
<g id="node35" class="node">
<title>perf</title>
<polygon fill="#d33682" stroke="black" points="1026,-255 972,-255 972,-219 1026,-219 1026,-255"/>
<text text-anchor="middle" x="999" y="-233.3" font-family="Times,serif" font-size="14.00" fill="white">perf</text>
</g>
<!-- gp6_centos7_pxf_latest&#45;&gt;perf -->
<g id="edge38" class="edge">
<title>gp6_centos7_pxf_latest&#45;&gt;perf</title>
<path fill="none" stroke="black" d="M556.36,-349.92C573.04,-343.79 592.65,-337.52 611,-334 620.61,-332.15 954.9,-322.49 963,-317 980.31,-305.26 989.43,-283.04 994.16,-265.14"/>
<polygon fill="black" stroke="black" points="997.61,-265.75 996.46,-255.22 990.79,-264.17 997.61,-265.75"/>
</g>
<!-- longevity -->
<g id="node36" class="node">
<title>longevity</title>
<polygon fill="#d33682" stroke="black" points="854,-255 786,-255 786,-219 854,-219 854,-255"/>
<text text-anchor="middle" x="820" y="-233.3" font-family="Times,serif" font-size="14.00" fill="white">longevity</text>
</g>
<!-- gp6_centos7_pxf_latest&#45;&gt;longevity -->
<g id="edge37" class="edge">
<title>gp6_centos7_pxf_latest&#45;&gt;longevity</title>
<path fill="none" stroke="black" d="M564.28,-349.9C579.27,-344.74 595.79,-339.1 611,-334 634.05,-326.27 640.52,-326.27 663,-317 704.08,-300.06 749.23,-276.83 780.52,-259.95"/>
<polygon fill="black" stroke="black" points="782.25,-262.99 789.37,-255.15 778.91,-256.84 782.25,-262.99"/>
</g>
<!-- gp6_centos7_pxf_latest&#45;&gt;build -->
<g id="edge39" class="edge">
<title>gp6_centos7_pxf_latest&#45;&gt;build</title>
<path fill="none" stroke="black" d="M555.84,-349.83C572.62,-343.6 592.43,-337.3 611,-334 640.88,-328.69 1131.45,-333.37 1157,-317 1175.23,-305.32 1186.06,-282.93 1192.15,-264.96"/>
<polygon fill="black" stroke="black" points="1195.53,-265.86 1195.13,-255.27 1188.84,-263.8 1195.53,-265.86"/>
</g>
<!-- gp6_centos7_pxf_latest&#45;&gt;pr -->
<g id="edge40" class="edge">
<title>gp6_centos7_pxf_latest&#45;&gt;pr</title>
<path fill="none" stroke="black" d="M555.86,-349.97C572.65,-343.76 592.46,-337.44 611,-334 657.36,-325.41 993.16,-338.75 1035,-317 1056.87,-305.63 1073.26,-282.52 1083.52,-264.21"/>
<polygon fill="black" stroke="black" points="1086.72,-265.64 1088.32,-255.17 1080.54,-262.36 1086.72,-265.64"/>
</g>
<!-- server_dockerfile -->
<g id="node39" class="node">
<title>server_dockerfile</title>
<polygon fill="#fdf6e3" stroke="black" points="546,-255 478,-255 478,-219 552,-219 552,-249 546,-255"/>
<polyline fill="none" stroke="black" points="546,-255 546,-249 "/>
<polyline fill="none" stroke="black" points="552,-249 546,-249 "/>
<text text-anchor="middle" x="515" y="-233.3" font-family="Times,serif" font-size="14.00">Dockerfile</text>
</g>
<!-- gp6_centos7_pxf_latest&#45;&gt;server_dockerfile -->
<g id="edge30" class="edge">
<title>gp6_centos7_pxf_latest&#45;&gt;server_dockerfile</title>
<path fill="none" stroke="black" d="M515,-349.87C515,-328.28 515,-290.91 515,-265.35"/>
<polygon fill="black" stroke="black" points="518.5,-265.2 515,-255.2 511.5,-265.2 518.5,-265.2"/>
</g>
<!-- gp6_centos7_pxf_latest&#45;&gt;mapr_dockerfile -->
<g id="edge27" class="edge">
<title>gp6_centos7_pxf_latest&#45;&gt;mapr_dockerfile</title>
<path fill="none" stroke="black" d="M489.6,-349.83C480.81,-343.08 471.32,-334.83 464,-326 448.54,-307.35 435.94,-282.81 427.7,-264.39"/>
<polygon fill="black" stroke="black" points="430.87,-262.9 423.68,-255.11 424.44,-265.68 430.87,-262.9"/>
</g>
<!-- gp6_rhel8_pxf_latest&#45;&gt;certification -->
<g id="edge41" class="edge">
<title>gp6_rhel8_pxf_latest&#45;&gt;certification</title>
<path fill="none" stroke="black" d="M1067.88,-349.86C1053.64,-344.53 1037.73,-338.81 1023,-334 996.65,-325.4 985.21,-333.58 963,-317 945.17,-303.69 932.1,-281.98 923.8,-264.68"/>
<polygon fill="black" stroke="black" points="926.78,-262.77 919.47,-255.11 920.4,-265.66 926.78,-262.77"/>
</g>
<!-- gp6_rhel8_pxf_latest&#45;&gt;perf -->
<g id="edge42" class="edge">
<title>gp6_rhel8_pxf_latest&#45;&gt;perf</title>
<path fill="none" stroke="black" d="M1077.52,-349.81C1063.29,-341.42 1047.47,-330.26 1036,-317 1022.87,-301.83 1013.42,-281.2 1007.36,-264.82"/>
<polygon fill="black" stroke="black" points="1010.62,-263.55 1004.02,-255.27 1004.01,-265.86 1010.62,-263.55"/>
</g>
<!-- gp6_rhel8_pxf_latest&#45;&gt;build -->
<g id="edge43" class="edge">
<title>gp6_rhel8_pxf_latest&#45;&gt;build</title>
<path fill="none" stroke="black" d="M1129.36,-349.84C1138.23,-340.57 1148.83,-328.67 1157,-317 1168.66,-300.35 1179.37,-280.08 1187.06,-264.24"/>
<polygon fill="black" stroke="black" points="1190.31,-265.56 1191.44,-255.03 1183.98,-262.56 1190.31,-265.56"/>
</g>
<!-- gp6_rhel8_pxf_latest&#45;&gt;pr -->
<g id="edge44" class="edge">
<title>gp6_rhel8_pxf_latest&#45;&gt;pr</title>
<path fill="none" stroke="black" d="M1109.88,-349.87C1107.2,-328.28 1102.56,-290.91 1099.39,-265.35"/>
<polygon fill="black" stroke="black" points="1102.84,-264.69 1098.13,-255.2 1095.89,-265.56 1102.84,-264.69"/>
</g>
<!-- gp6_ubuntu18_pxf_latest&#45;&gt;certification -->
<g id="edge45" class="edge">
<title>gp6_ubuntu18_pxf_latest&#45;&gt;certification</title>
<path fill="none" stroke="black" d="M913,-349.87C913,-328.28 913,-290.91 913,-265.35"/>
<polygon fill="black" stroke="black" points="916.5,-265.2 913,-255.2 909.5,-265.2 916.5,-265.2"/>
</g>
<!-- gp6_ubuntu18_pxf_latest&#45;&gt;build -->
<g id="edge46" class="edge">
<title>gp6_ubuntu18_pxf_latest&#45;&gt;build</title>
<path fill="none" stroke="black" d="M963.48,-349.95C982.02,-344.19 1003.3,-338.17 1023,-334 1052.36,-327.78 1132.3,-334.05 1157,-317 1174.63,-304.83 1185.46,-282.84 1191.69,-265.15"/>
<polygon fill="black" stroke="black" points="1195.12,-265.92 1194.85,-255.33 1188.45,-263.78 1195.12,-265.92"/>
</g>
<!-- gp6_ubuntu18_pxf_latest&#45;&gt;pr -->
<g id="edge47" class="edge">
<title>gp6_ubuntu18_pxf_latest&#45;&gt;pr</title>
<path fill="none" stroke="black" d="M971.86,-349.97C993.06,-342.07 1016.34,-331.22 1035,-317 1053.84,-302.64 1069.95,-281.1 1080.88,-264.13"/>
<polygon fill="black" stroke="black" points="1084.09,-265.59 1086.4,-255.25 1078.15,-261.89 1084.09,-265.59"/>
</g>
<!-- gp6_oel7_pxf_latest&#45;&gt;build -->
<g id="edge48" class="edge">
<title>gp6_oel7_pxf_latest&#45;&gt;build</title>
<path fill="none" stroke="black" d="M1277.05,-349.87C1261.65,-327.8 1234.75,-289.24 1216.9,-263.66"/>
<polygon fill="black" stroke="black" points="1219.59,-261.4 1211,-255.2 1213.85,-265.4 1219.59,-261.4"/>
</g>
<!-- gp6_oel7_pxf_latest&#45;&gt;pr -->
<g id="edge49" class="edge">
<title>gp6_oel7_pxf_latest&#45;&gt;pr</title>
<path fill="none" stroke="black" d="M1248.79,-349.99C1234.24,-344.31 1217.56,-338.33 1202,-334 1182.85,-328.68 1174.75,-336.7 1158,-326 1134.89,-311.24 1117.9,-284.48 1107.61,-264.33"/>
<polygon fill="black" stroke="black" points="1110.75,-262.79 1103.22,-255.33 1104.46,-265.85 1110.75,-262.79"/>
</g>
<!-- gp7_centos7_pxf_latest&#45;&gt;build -->
<g id="edge50" class="edge">
<title>gp7_centos7_pxf_latest&#45;&gt;build</title>
<path fill="none" stroke="black" d="M1435.75,-349.87C1385.67,-326.21 1295.47,-283.58 1242.03,-258.34"/>
<polygon fill="black" stroke="black" points="1243.36,-255.09 1232.82,-253.98 1240.37,-261.42 1243.36,-255.09"/>
</g>
<!-- gp7_centos7_pxf_latest&#45;&gt;pr -->
<g id="edge51" class="edge">
<title>gp7_centos7_pxf_latest&#45;&gt;pr</title>
<path fill="none" stroke="black" d="M1429.64,-349.85C1413.16,-343.86 1393.95,-337.72 1376,-334 1328.2,-324.1 1199.95,-340.2 1157,-317 1135.32,-305.29 1118.9,-282.21 1108.59,-264.01"/>
<polygon fill="black" stroke="black" points="1111.58,-262.17 1103.76,-255.02 1105.41,-265.48 1111.58,-262.17"/>
</g>
<!-- gp7_ubuntu18_pxf_latest&#45;&gt;build -->
<g id="edge52" class="edge">
<title>gp7_ubuntu18_pxf_latest&#45;&gt;build</title>
<path fill="none" stroke="black" d="M1622.72,-349.98C1605.26,-344.72 1585.86,-339 1568,-334 1450.98,-301.24 1312.04,-266.1 1242.79,-248.84"/>
<polygon fill="black" stroke="black" points="1243.24,-245.34 1232.69,-246.32 1241.55,-252.13 1243.24,-245.34"/>
</g>
<!-- gp7_ubuntu18_pxf_latest&#45;&gt;pr -->
<g id="edge53" class="edge">
<title>gp7_ubuntu18_pxf_latest&#45;&gt;pr</title>
<path fill="none" stroke="black" d="M1630.7,-349.98C1611.5,-343.82 1588.94,-337.52 1568,-334 1522.93,-326.43 1197.6,-338 1157,-317 1135.11,-305.68 1118.72,-282.56 1108.47,-264.24"/>
<polygon fill="black" stroke="black" points="1111.45,-262.38 1103.67,-255.19 1105.26,-265.66 1111.45,-262.38"/>
</g>
<!-- rpm_centos7_latest&#45;&gt;build -->
<g id="edge54" class="edge">
<title>rpm_centos7_latest&#45;&gt;build</title>
<path fill="none" stroke="black" d="M2114.03,-436.94C2076.64,-411.09 2001.43,-362.05 1931,-334 1804.07,-283.45 1380.87,-250.52 1242.9,-240.91"/>
<polygon fill="black" stroke="black" points="1242.93,-237.41 1232.71,-240.21 1242.45,-244.39 1242.93,-237.41"/>
</g>
<!-- rpm_rhel8_latest&#45;&gt;build -->
<g id="edge55" class="edge">
<title>rpm_rhel8_latest&#45;&gt;build</title>
<path fill="none" stroke="black" d="M1965.26,-436.68C1955.36,-409.79 1932.38,-358.53 1894,-334 1784.96,-264.3 1378.08,-244.17 1242.95,-239.34"/>
<polygon fill="black" stroke="black" points="1242.69,-235.83 1232.57,-238.98 1242.45,-242.82 1242.69,-235.83"/>
</g>
<!-- gp6_centos7_pxf_hdp2_sha -->
<g id="node43" class="node">
<title>gp6_centos7_pxf_hdp2_sha</title>
<polygon fill="none" stroke="black" points="754,-147 402,-147 402,-111 754,-111 754,-147"/>
<text text-anchor="middle" x="578" y="-125.3" font-family="Times,serif" font-size="14.00">gpdb&#45;pxf&#45;dev/gpdb6&#45;centos7&#45;test&#45;pxf&#45;hdp2:$COMMIT_SHA</text>
</g>
<!-- server_dockerfile&#45;&gt;gp6_centos7_pxf_hdp2_sha -->
<g id="edge31" class="edge">
<title>server_dockerfile&#45;&gt;gp6_centos7_pxf_hdp2_sha</title>
<path fill="none" stroke="black" d="M525.12,-218.97C535.21,-201.99 550.84,-175.7 562.49,-156.09"/>
<polygon fill="black" stroke="black" points="565.59,-157.73 567.69,-147.34 559.58,-154.15 565.59,-157.73"/>
<text text-anchor="middle" x="716.5" y="-189.8" font-family="Times,serif" font-size="14.00">CloudBuild (add singlecluster, build deps, &amp; automation deps)</text>
</g>
<!-- gp6_centos7_pxf_mapr_sha -->
<g id="node41" class="node">
<title>gp6_centos7_pxf_mapr_sha</title>
<polygon fill="none" stroke="black" points="377.5,-147 24.5,-147 24.5,-111 377.5,-111 377.5,-147"/>
<text text-anchor="middle" x="201" y="-125.3" font-family="Times,serif" font-size="14.00">gpdb&#45;pxf&#45;dev/gpdb6&#45;centos7&#45;test&#45;pxf&#45;mapr:$COMMIT_SHA</text>
</g>
<!-- mapr_dockerfile&#45;&gt;gp6_centos7_pxf_mapr_sha -->
<g id="edge28" class="edge">
<title>mapr_dockerfile&#45;&gt;gp6_centos7_pxf_mapr_sha</title>
<path fill="none" stroke="black" d="M382.3,-218.97C345.01,-200.67 285.66,-171.55 245.09,-151.64"/>
<polygon fill="black" stroke="black" points="246.5,-148.43 235.98,-147.16 243.41,-154.71 246.5,-148.43"/>
<text text-anchor="middle" x="415" y="-189.8" font-family="Times,serif" font-size="14.00">CloudBuild (install MapR)</text>
</g>
<!-- gp6_centos7_pxf_mapr_latest -->
<g id="node42" class="node">
<title>gp6_centos7_pxf_mapr_latest</title>
<polygon fill="#6c71c4" stroke="black" points="369,-60 85,-60 85,-24 369,-24 369,-60"/>
<text text-anchor="middle" x="227" y="-38.3" font-family="Times,serif" font-size="14.00" fill="white">gpdb&#45;pxf&#45;dev/gpdb6&#45;centos7&#45;test&#45;pxf&#45;mapr:latest</text>
</g>
<!-- gp6_centos7_pxf_mapr_sha&#45;&gt;gp6_centos7_pxf_mapr_latest -->
<g id="edge29" class="edge">
<title>gp6_centos7_pxf_mapr_sha&#45;&gt;gp6_centos7_pxf_mapr_latest</title>
<path fill="none" stroke="black" d="M206.26,-110.8C209.86,-99.05 214.69,-83.24 218.79,-69.84"/>
<polygon fill="black" stroke="black" points="222.17,-70.76 221.75,-60.18 215.47,-68.71 222.17,-70.76"/>
<text text-anchor="middle" x="282" y="-81.8" font-family="Times,serif" font-size="14.00">tag (concourse pipeline)</text>
</g>
<!-- gp6_centos7_pxf_mapr_latest&#45;&gt;build -->
<g id="edge56" class="edge">
<title>gp6_centos7_pxf_mapr_latest&#45;&gt;build</title>
<path fill="none" stroke="black" d="M369.1,-58.89C502.55,-74.19 692.4,-97 766,-111 942.21,-144.51 991.35,-142.2 1157,-211 1159.33,-211.97 1161.69,-213.05 1164.03,-214.2"/>
<polygon fill="black" stroke="black" points="1162.46,-217.33 1172.94,-218.94 1165.75,-211.15 1162.46,-217.33"/>
<text text-anchor="middle" x="1191" y="-125.3" font-family="Times,serif" font-size="14.00">Conditionally added based off mapr variable</text>
</g>
<!-- gp6_centos7_pxf_hdp2_latest -->
<g id="node44" class="node">
<title>gp6_centos7_pxf_hdp2_latest</title>
<polygon fill="#b58900" stroke="black" points="703.5,-60 452.5,-60 452.5,-24 703.5,-24 703.5,-60"/>
<text text-anchor="middle" x="578" y="-38.3" font-family="Times,serif" font-size="14.00" fill="white">gpdb&#45;pxf&#45;dev/gpdb6&#45;centos7&#45;test&#45;pxf&#45;hdp2</text>
</g>
<!-- gp6_centos7_pxf_hdp2_sha&#45;&gt;gp6_centos7_pxf_hdp2_latest -->
<g id="edge32" class="edge">
<title>gp6_centos7_pxf_hdp2_sha&#45;&gt;gp6_centos7_pxf_hdp2_latest</title>
<path fill="none" stroke="black" d="M578,-110.8C578,-99.16 578,-83.55 578,-70.24"/>
<polygon fill="black" stroke="black" points="581.5,-70.18 578,-60.18 574.5,-70.18 581.5,-70.18"/>
</g>
</g>
</svg>
