<?xml version="1.0" encoding="UTF-8" standalone="no"?>
<!DOCTYPE svg PUBLIC "-//W3C//DTD SVG 1.1//EN"
 "http://www.w3.org/Graphics/SVG/1.1/DTD/svg11.dtd">
<!-- Generated by graphviz version 2.46.1 (20210213.1702)
 -->
<!-- Title: pxf_container_image_flow Pages: 1 -->
<svg width="2069pt" height="753pt"
 viewBox="0.00 0.00 2069.00 753.00" xmlns="http://www.w3.org/2000/svg" xmlns:xlink="http://www.w3.org/1999/xlink">
<g id="graph0" class="graph" transform="scale(1 1) rotate(0) translate(4 749)">
<title>pxf_container_image_flow</title>
<polygon fill="white" stroke="transparent" points="-4,4 -4,-749 2065,-749 2065,4 -4,4"/>
<g id="clust1" class="cluster">
<title>cluster_dockerhub</title>
<polygon fill="none" stroke="black" stroke-dasharray="5,2" points="467,-662 467,-737 592,-737 592,-662 467,-662"/>
<text text-anchor="middle" x="529.5" y="-721.8" font-family="Times,serif" font-size="14.00">Official DockerHub</text>
</g>
<g id="clust2" class="cluster">
<title>cluster_pivotaldata</title>
<polygon fill="none" stroke="black" stroke-dasharray="5,2" points="600,-662 600,-737 1709,-737 1709,-662 600,-662"/>
<text text-anchor="middle" x="1154.5" y="-721.8" font-family="Times,serif" font-size="14.00">GP RelEng Images (registry.hub.docker.com/pivotaldata)</text>
</g>
<g id="clust3" class="cluster">
<title>cluster_pxf_dev_base</title>
<polygon fill="none" stroke="black" stroke-dasharray="5,2" points="795,-568 795,-643 1510,-643 1510,-568 795,-568"/>
<text text-anchor="middle" x="1152.5" y="-627.8" font-family="Times,serif" font-size="14.00">pxf&#45;dev&#45;base/cloudbuild.yaml</text>
</g>
<g id="clust4" class="cluster">
<title>cluster_rpmrebuild</title>
<polygon fill="none" stroke="black" stroke-dasharray="5,2" points="556,-568 556,-643 765,-643 765,-568 556,-568"/>
<text text-anchor="middle" x="660.5" y="-627.8" font-family="Times,serif" font-size="14.00">rpmrebuild/centos/cloudbuild.yaml</text>
</g>
<g id="clust5" class="cluster">
<title>cluster_gcr_data_gpdb_ud</title>
<polygon fill="none" stroke="black" stroke-dasharray="5,2" points="269,-334 269,-535 2053,-535 2053,-334 269,-334"/>
<text text-anchor="middle" x="1161" y="-519.8" font-family="Times,serif" font-size="14.00">gcr.io/data&#45;gpdb&#45;ud</text>
</g>
<g id="clust6" class="cluster">
<title>cluster_gpdb_pxf_dev</title>
<polygon fill="none" stroke="black" stroke-dasharray="5,2" points="277,-342 277,-504 1880,-504 1880,-342 277,-342"/>
<text text-anchor="middle" x="1078.5" y="-488.8" font-family="Times,serif" font-size="14.00">gpdb&#45;pxf&#45;dev</text>
</g>
<g id="clust7" class="cluster">
<title>cluster_pipelines</title>
<polygon fill="none" stroke="black" stroke-dasharray="5,2" points="778,-211 778,-286 1240,-286 1240,-211 778,-211"/>
<text text-anchor="middle" x="1009" y="-270.8" font-family="Times,serif" font-size="14.00">Pipelines</text>
</g>
<g id="clust8" class="cluster">
<title>cluster_local_use_only</title>
<polygon fill="none" stroke="black" stroke-dasharray="5,2" points="8,-8 8,-317 770,-317 770,-8 8,-8"/>
<text text-anchor="middle" x="389" y="-301.8" font-family="Times,serif" font-size="14.00">For local development use</text>
</g>
<g id="clust9" class="cluster">
<title>cluster_pxf_dev_server</title>
<polygon fill="none" stroke="black" stroke-dasharray="5,2" points="569,-211 569,-286 758,-286 758,-211 569,-211"/>
<text text-anchor="middle" x="663.5" y="-270.8" font-family="Times,serif" font-size="14.00">pxf&#45;dev&#45;server/cloudbuild.yaml</text>
</g>
<g id="clust10" class="cluster">
<title>cluster_mapr</title>
<polygon fill="none" stroke="black" stroke-dasharray="5,2" points="423,-211 423,-286 561,-286 561,-211 423,-211"/>
<text text-anchor="middle" x="492" y="-270.8" font-family="Times,serif" font-size="14.00">mapr/cloudbuild.yaml</text>
</g>
<g id="clust11" class="cluster">
<title>cluster_gcr_data_gpdb_ud_mapr</title>
<polygon fill="none" stroke="black" stroke-dasharray="5,2" points="16,-16 16,-178 386,-178 386,-16 16,-16"/>
<text text-anchor="middle" x="201" y="-162.8" font-family="Times,serif" font-size="14.00">MapR Images (gcr.io/data&#45;gpdb&#45;ud)</text>
</g>
<g id="clust12" class="cluster">
<title>cluster_gcr_data_gpdb_ud_hdp2</title>
<polygon fill="none" stroke="black" stroke-dasharray="5,2" points="394,-16 394,-178 762,-178 762,-16 394,-16"/>
<text text-anchor="middle" x="578" y="-162.8" font-family="Times,serif" font-size="14.00">HDP2 (gcr.io/data&#45;gpdb&#45;ud)</text>
</g>
<!-- centos6 -->
<g id="node1" class="node">
<title>centos6</title>
<polygon fill="#268bd2" stroke="black" points="584,-706 526,-706 522,-702 522,-670 580,-670 584,-674 584,-706"/>
<polyline fill="none" stroke="black" points="580,-702 522,-702 "/>
<polyline fill="none" stroke="black" points="580,-702 580,-670 "/>
<polyline fill="none" stroke="black" points="580,-702 584,-706 "/>
<text text-anchor="middle" x="553" y="-684.3" font-family="Times,serif" font-size="14.00" fill="white">centos:6</text>
</g>
<!-- rpm_docker -->
<g id="node14" class="node">
<title>rpm_docker</title>
<polygon fill="#fdf6e3" stroke="black" points="703,-612 635,-612 635,-576 709,-576 709,-606 703,-612"/>
<polyline fill="none" stroke="black" points="703,-612 703,-606 "/>
<polyline fill="none" stroke="black" points="709,-606 703,-606 "/>
<text text-anchor="middle" x="672" y="-590.3" font-family="Times,serif" font-size="14.00">Dockerfile</text>
</g>
<!-- centos6&#45;&gt;rpm_docker -->
<g id="edge19" class="edge">
<title>centos6&#45;&gt;rpm_docker</title>
<path fill="none" stroke="black" d="M575.1,-669.91C593.77,-655.48 620.7,-634.66 641.43,-618.63"/>
<polygon fill="black" stroke="black" points="643.84,-621.19 649.61,-612.31 639.56,-615.66 643.84,-621.19"/>
</g>
<!-- gp5_centos7_latest -->
<g id="node2" class="node">
<title>gp5_centos7_latest</title>
<polygon fill="#2aa198" stroke="black" points="983.5,-706 782.5,-706 778.5,-702 778.5,-670 979.5,-670 983.5,-674 983.5,-706"/>
<polyline fill="none" stroke="black" points="979.5,-702 778.5,-702 "/>
<polyline fill="none" stroke="black" points="979.5,-702 979.5,-670 "/>
<polyline fill="none" stroke="black" points="979.5,-702 983.5,-706 "/>
<text text-anchor="middle" x="881" y="-684.3" font-family="Times,serif" font-size="14.00" fill="white">centos&#45;gpdb&#45;dev:7&#45;gcc6.2&#45;llvm3.7</text>
</g>
<!-- gp5_centos7_dockerfile -->
<g id="node8" class="node">
<title>gp5_centos7_dockerfile</title>
<polygon fill="#fdf6e3" stroke="black" points="1005.5,-612 916.5,-612 916.5,-576 1011.5,-576 1011.5,-606 1005.5,-612"/>
<polyline fill="none" stroke="black" points="1005.5,-612 1005.5,-606 "/>
<polyline fill="none" stroke="black" points="1011.5,-606 1005.5,-606 "/>
<text text-anchor="middle" x="964" y="-590.3" font-family="Times,serif" font-size="14.00">gpdb5/centos7</text>
</g>
<!-- gp5_centos7_latest&#45;&gt;gp5_centos7_dockerfile -->
<g id="edge1" class="edge">
<title>gp5_centos7_latest&#45;&gt;gp5_centos7_dockerfile</title>
<path fill="none" stroke="black" d="M896.61,-669.7C909.25,-655.69 927.22,-635.77 941.42,-620.03"/>
<polygon fill="black" stroke="black" points="944.36,-622 948.46,-612.23 939.16,-617.31 944.36,-622"/>
</g>
<!-- gp6_centos7_latest -->
<g id="node3" class="node">
<title>gp6_centos7_latest</title>
<polygon fill="#2aa198" stroke="black" points="760,-706 612,-706 608,-702 608,-670 756,-670 760,-674 760,-706"/>
<polyline fill="none" stroke="black" points="756,-702 608,-702 "/>
<polyline fill="none" stroke="black" points="756,-702 756,-670 "/>
<polyline fill="none" stroke="black" points="756,-702 760,-706 "/>
<text text-anchor="middle" x="684" y="-684.3" font-family="Times,serif" font-size="14.00" fill="white">gpdb6&#45;centos7&#45;test:latest</text>
</g>
<!-- gp6_centos7_dockerfile -->
<g id="node9" class="node">
<title>gp6_centos7_dockerfile</title>
<polygon fill="#fdf6e3" stroke="black" points="892.5,-612 803.5,-612 803.5,-576 898.5,-576 898.5,-606 892.5,-612"/>
<polyline fill="none" stroke="black" points="892.5,-612 892.5,-606 "/>
<polyline fill="none" stroke="black" points="898.5,-606 892.5,-606 "/>
<text text-anchor="middle" x="851" y="-590.3" font-family="Times,serif" font-size="14.00">gpdb6/centos7</text>
</g>
<!-- gp6_centos7_latest&#45;&gt;gp6_centos7_dockerfile -->
<g id="edge4" class="edge">
<title>gp6_centos7_latest&#45;&gt;gp6_centos7_dockerfile</title>
<path fill="none" stroke="black" d="M718.13,-669.84C733.74,-661.87 752.41,-652.14 769,-643 783.81,-634.84 799.92,-625.51 813.9,-617.27"/>
<polygon fill="black" stroke="black" points="815.93,-620.13 822.75,-612.03 812.36,-614.11 815.93,-620.13"/>
</g>
<!-- gp6_ubuntu18_latest -->
<g id="node4" class="node">
<title>gp6_ubuntu18_latest</title>
<polygon fill="#2aa198" stroke="black" points="1180.5,-706 1005.5,-706 1001.5,-702 1001.5,-670 1176.5,-670 1180.5,-674 1180.5,-706"/>
<polyline fill="none" stroke="black" points="1176.5,-702 1001.5,-702 "/>
<polyline fill="none" stroke="black" points="1176.5,-702 1176.5,-670 "/>
<polyline fill="none" stroke="black" points="1176.5,-702 1180.5,-706 "/>
<text text-anchor="middle" x="1091" y="-684.3" font-family="Times,serif" font-size="14.00" fill="white">gpdb6&#45;ubuntu18.04&#45;test:latest</text>
</g>
<!-- gp6_ubuntu18_dockerfile -->
<g id="node10" class="node">
<title>gp6_ubuntu18_dockerfile</title>
<polygon fill="#fdf6e3" stroke="black" points="1146,-612 1030,-612 1030,-576 1152,-576 1152,-606 1146,-612"/>
<polyline fill="none" stroke="black" points="1146,-612 1146,-606 "/>
<polyline fill="none" stroke="black" points="1152,-606 1146,-606 "/>
<text text-anchor="middle" x="1091" y="-590.3" font-family="Times,serif" font-size="14.00">gpdb6/ubuntu18.04</text>
</g>
<!-- gp6_ubuntu18_latest&#45;&gt;gp6_ubuntu18_dockerfile -->
<g id="edge7" class="edge">
<title>gp6_ubuntu18_latest&#45;&gt;gp6_ubuntu18_dockerfile</title>
<path fill="none" stroke="black" d="M1091,-669.7C1091,-656.46 1091,-637.95 1091,-622.66"/>
<polygon fill="black" stroke="black" points="1094.5,-622.23 1091,-612.23 1087.5,-622.23 1094.5,-622.23"/>
</g>
<!-- gp6_oel7_latest -->
<g id="node5" class="node">
<title>gp6_oel7_latest</title>
<polygon fill="#2aa198" stroke="black" points="1333,-706 1203,-706 1199,-702 1199,-670 1329,-670 1333,-674 1333,-706"/>
<polyline fill="none" stroke="black" points="1329,-702 1199,-702 "/>
<polyline fill="none" stroke="black" points="1329,-702 1329,-670 "/>
<polyline fill="none" stroke="black" points="1329,-702 1333,-706 "/>
<text text-anchor="middle" x="1266" y="-684.3" font-family="Times,serif" font-size="14.00" fill="white">gpdb6&#45;oel7&#45;test:latest</text>
</g>
<!-- gp6_oel7_dockerfile -->
<g id="node11" class="node">
<title>gp6_oel7_dockerfile</title>
<polygon fill="#fdf6e3" stroke="black" points="1241.5,-612 1170.5,-612 1170.5,-576 1247.5,-576 1247.5,-606 1241.5,-612"/>
<polyline fill="none" stroke="black" points="1241.5,-612 1241.5,-606 "/>
<polyline fill="none" stroke="black" points="1247.5,-606 1241.5,-606 "/>
<text text-anchor="middle" x="1209" y="-590.3" font-family="Times,serif" font-size="14.00">gpdb6/oel7</text>
</g>
<!-- gp6_oel7_latest&#45;&gt;gp6_oel7_dockerfile -->
<g id="edge10" class="edge">
<title>gp6_oel7_latest&#45;&gt;gp6_oel7_dockerfile</title>
<path fill="none" stroke="black" d="M1255.28,-669.7C1246.76,-655.95 1234.71,-636.5 1225.05,-620.9"/>
<polygon fill="black" stroke="black" points="1227.92,-618.88 1219.67,-612.23 1221.96,-622.57 1227.92,-618.88"/>
</g>
<!-- gp7_centos7_latest -->
<g id="node6" class="node">
<title>gp7_centos7_latest</title>
<polygon fill="#2aa198" stroke="black" points="1701,-706 1553,-706 1549,-702 1549,-670 1697,-670 1701,-674 1701,-706"/>
<polyline fill="none" stroke="black" points="1697,-702 1549,-702 "/>
<polyline fill="none" stroke="black" points="1697,-702 1697,-670 "/>
<polyline fill="none" stroke="black" points="1697,-702 1701,-706 "/>
<text text-anchor="middle" x="1625" y="-684.3" font-family="Times,serif" font-size="14.00" fill="white">gpdb7&#45;centos7&#45;test:latest</text>
</g>
<!-- gp7_centos7_dockerfile -->
<g id="node12" class="node">
<title>gp7_centos7_dockerfile</title>
<polygon fill="#fdf6e3" stroke="black" points="1495.5,-612 1406.5,-612 1406.5,-576 1501.5,-576 1501.5,-606 1495.5,-612"/>
<polyline fill="none" stroke="black" points="1495.5,-612 1495.5,-606 "/>
<polyline fill="none" stroke="black" points="1501.5,-606 1495.5,-606 "/>
<text text-anchor="middle" x="1454" y="-590.3" font-family="Times,serif" font-size="14.00">gpdb7/centos7</text>
</g>
<!-- gp7_centos7_latest&#45;&gt;gp7_centos7_dockerfile -->
<g id="edge13" class="edge">
<title>gp7_centos7_latest&#45;&gt;gp7_centos7_dockerfile</title>
<path fill="none" stroke="black" d="M1593.24,-669.91C1565.49,-654.98 1525.04,-633.22 1494.89,-617"/>
<polygon fill="black" stroke="black" points="1496.35,-613.81 1485.88,-612.15 1493.03,-619.97 1496.35,-613.81"/>
</g>
<!-- gp7_ubuntu18_latest -->
<g id="node7" class="node">
<title>gp7_ubuntu18_latest</title>
<polygon fill="#2aa198" stroke="black" points="1530.5,-706 1355.5,-706 1351.5,-702 1351.5,-670 1526.5,-670 1530.5,-674 1530.5,-706"/>
<polyline fill="none" stroke="black" points="1526.5,-702 1351.5,-702 "/>
<polyline fill="none" stroke="black" points="1526.5,-702 1526.5,-670 "/>
<polyline fill="none" stroke="black" points="1526.5,-702 1530.5,-706 "/>
<text text-anchor="middle" x="1441" y="-684.3" font-family="Times,serif" font-size="14.00" fill="white">gpdb7&#45;ubuntu18.04&#45;test:latest</text>
</g>
<!-- gp7_ubuntu18_dockerfile -->
<g id="node13" class="node">
<title>gp7_ubuntu18_dockerfile</title>
<polygon fill="#fdf6e3" stroke="black" points="1382,-612 1266,-612 1266,-576 1388,-576 1388,-606 1382,-612"/>
<polyline fill="none" stroke="black" points="1382,-612 1382,-606 "/>
<polyline fill="none" stroke="black" points="1388,-606 1382,-606 "/>
<text text-anchor="middle" x="1327" y="-590.3" font-family="Times,serif" font-size="14.00">gpdb7/ubuntu18.04</text>
</g>
<!-- gp7_ubuntu18_latest&#45;&gt;gp7_ubuntu18_dockerfile -->
<g id="edge16" class="edge">
<title>gp7_ubuntu18_latest&#45;&gt;gp7_ubuntu18_dockerfile</title>
<path fill="none" stroke="black" d="M1419.82,-669.91C1401.94,-655.48 1376.15,-634.66 1356.28,-618.63"/>
<polygon fill="black" stroke="black" points="1358.43,-615.87 1348.45,-612.31 1354.03,-621.31 1358.43,-615.87"/>
</g>
<!-- gp5_centos7_pxf_sha -->
<g id="node15" class="node">
<title>gp5_centos7_pxf_sha</title>
<polygon fill="none" stroke="black" points="789.5,-473 546.5,-473 546.5,-437 789.5,-437 789.5,-473"/>
<text text-anchor="middle" x="668" y="-451.3" font-family="Times,serif" font-size="14.00">gpdb5&#45;centos7&#45;test&#45;pxf:$COMMIT_SHA</text>
</g>
<!-- gp5_centos7_dockerfile&#45;&gt;gp5_centos7_pxf_sha -->
<g id="edge2" class="edge">
<title>gp5_centos7_dockerfile&#45;&gt;gp5_centos7_pxf_sha</title>
<path fill="none" stroke="black" d="M927.19,-575.88C920.84,-573.12 914.27,-570.39 908,-568 873.99,-555 864.97,-553.11 830,-543 816.33,-539.05 812.12,-540.51 799,-535 763.14,-519.94 725.44,-496.26 699.74,-478.75"/>
<polygon fill="black" stroke="black" points="701.72,-475.86 691.5,-473.07 697.75,-481.62 701.72,-475.86"/>
<text text-anchor="middle" x="911" y="-546.8" font-family="Times,serif" font-size="14.00">CloudBuild</text>
</g>
<!-- gp6_centos7_pxf_sha -->
<g id="node16" class="node">
<title>gp6_centos7_pxf_sha</title>
<polygon fill="none" stroke="black" points="528.5,-473 285.5,-473 285.5,-437 528.5,-437 528.5,-473"/>
<text text-anchor="middle" x="407" y="-451.3" font-family="Times,serif" font-size="14.00">gpdb6&#45;centos7&#45;test&#45;pxf:$COMMIT_SHA</text>
</g>
<!-- gp6_centos7_dockerfile&#45;&gt;gp6_centos7_pxf_sha -->
<g id="edge5" class="edge">
<title>gp6_centos7_dockerfile&#45;&gt;gp6_centos7_pxf_sha</title>
<path fill="none" stroke="black" d="M803.2,-577.07C792.06,-573.74 780.19,-570.49 769,-568 667.77,-545.48 635.69,-569.81 538,-535 500.91,-521.79 462.85,-497.38 437.38,-479.18"/>
<polygon fill="black" stroke="black" points="439.39,-476.32 429.24,-473.27 435.28,-481.98 439.39,-476.32"/>
<text text-anchor="middle" x="729" y="-546.8" font-family="Times,serif" font-size="14.00">CloudBuild</text>
</g>
<!-- gp6_ubuntu18_pxf_sha -->
<g id="node17" class="node">
<title>gp6_ubuntu18_pxf_sha</title>
<polygon fill="none" stroke="black" points="1078,-473 808,-473 808,-437 1078,-437 1078,-473"/>
<text text-anchor="middle" x="943" y="-451.3" font-family="Times,serif" font-size="14.00">gpdb6&#45;ubuntu18.04&#45;test&#45;pxf:$COMMIT_SHA</text>
</g>
<!-- gp6_ubuntu18_dockerfile&#45;&gt;gp6_ubuntu18_pxf_sha -->
<g id="edge8" class="edge">
<title>gp6_ubuntu18_dockerfile&#45;&gt;gp6_ubuntu18_pxf_sha</title>
<path fill="none" stroke="black" d="M1072.55,-575.93C1046.52,-551.83 998.87,-507.71 969.18,-480.23"/>
<polygon fill="black" stroke="black" points="971.39,-477.51 961.68,-473.29 966.64,-482.65 971.39,-477.51"/>
<text text-anchor="middle" x="1083" y="-546.8" font-family="Times,serif" font-size="14.00">CloudBuild</text>
</g>
<!-- gp6_oel7_pxf_sha -->
<g id="node18" class="node">
<title>gp6_oel7_pxf_sha</title>
<polygon fill="none" stroke="black" points="1321.5,-473 1096.5,-473 1096.5,-437 1321.5,-437 1321.5,-473"/>
<text text-anchor="middle" x="1209" y="-451.3" font-family="Times,serif" font-size="14.00">gpdb6&#45;oel7&#45;test&#45;pxf:$COMMIT_SHA</text>
</g>
<!-- gp6_oel7_dockerfile&#45;&gt;gp6_oel7_pxf_sha -->
<g id="edge11" class="edge">
<title>gp6_oel7_dockerfile&#45;&gt;gp6_oel7_pxf_sha</title>
<path fill="none" stroke="black" d="M1209,-575.93C1209,-552.75 1209,-511.06 1209,-483.46"/>
<polygon fill="black" stroke="black" points="1212.5,-483.29 1209,-473.29 1205.5,-483.29 1212.5,-483.29"/>
<text text-anchor="middle" x="1241" y="-546.8" font-family="Times,serif" font-size="14.00">CloudBuild</text>
</g>
<!-- gp7_centos7_pxf_sha -->
<g id="node19" class="node">
<title>gp7_centos7_pxf_sha</title>
<polygon fill="none" stroke="black" points="1871.5,-473 1628.5,-473 1628.5,-437 1871.5,-437 1871.5,-473"/>
<text text-anchor="middle" x="1750" y="-451.3" font-family="Times,serif" font-size="14.00">gpdb7&#45;centos7&#45;test&#45;pxf:$COMMIT_SHA</text>
</g>
<!-- gp7_centos7_dockerfile&#45;&gt;gp7_centos7_pxf_sha -->
<g id="edge14" class="edge">
<title>gp7_centos7_dockerfile&#45;&gt;gp7_centos7_pxf_sha</title>
<path fill="none" stroke="black" d="M1501.61,-579.12C1535.13,-568.66 1580.68,-553.06 1619,-535 1653.6,-518.7 1690.73,-495.73 1716.59,-478.76"/>
<polygon fill="black" stroke="black" points="1718.84,-481.47 1725.25,-473.03 1714.98,-475.64 1718.84,-481.47"/>
<text text-anchor="middle" x="1629" y="-546.8" font-family="Times,serif" font-size="14.00">CloudBuild</text>
</g>
<!-- gp7_ubuntu18_pxf_sha -->
<g id="node20" class="node">
<title>gp7_ubuntu18_pxf_sha</title>
<polygon fill="none" stroke="black" points="1610,-473 1340,-473 1340,-437 1610,-437 1610,-473"/>
<text text-anchor="middle" x="1475" y="-451.3" font-family="Times,serif" font-size="14.00">gpdb7&#45;ubuntu18.04&#45;test&#45;pxf:$COMMIT_SHA</text>
</g>
<!-- gp7_ubuntu18_dockerfile&#45;&gt;gp7_ubuntu18_pxf_sha -->
<g id="edge17" class="edge">
<title>gp7_ubuntu18_dockerfile&#45;&gt;gp7_ubuntu18_pxf_sha</title>
<path fill="none" stroke="black" d="M1345.45,-575.93C1371.48,-551.83 1419.13,-507.71 1448.82,-480.23"/>
<polygon fill="black" stroke="black" points="1451.36,-482.65 1456.32,-473.29 1446.61,-477.51 1451.36,-482.65"/>
<text text-anchor="middle" x="1411" y="-546.8" font-family="Times,serif" font-size="14.00">CloudBuild</text>
</g>
<!-- rpm_centos7_latest -->
<g id="node27" class="node">
<title>rpm_centos7_latest</title>
<polygon fill="#6c71c4" stroke="black" points="2044.5,-473 1889.5,-473 1889.5,-437 2044.5,-437 2044.5,-473"/>
<text text-anchor="middle" x="1967" y="-451.3" font-family="Times,serif" font-size="14.00" fill="white">rpmrebuild&#45;centos7:latest</text>
</g>
<!-- rpm_docker&#45;&gt;rpm_centos7_latest -->
<g id="edge20" class="edge">
<title>rpm_docker&#45;&gt;rpm_centos7_latest</title>
<path fill="none" stroke="black" d="M684.35,-575.57C693.73,-563.94 707.76,-549.61 724,-543 753.85,-530.86 1854.12,-547.07 1884,-535 1910.87,-524.15 1934.04,-500.06 1949.02,-481.32"/>
<polygon fill="black" stroke="black" points="1951.98,-483.21 1955.31,-473.15 1946.43,-478.94 1951.98,-483.21"/>
</g>
<!-- gp5_centos7_pxf_latest -->
<g id="node21" class="node">
<title>gp5_centos7_pxf_latest</title>
<polygon fill="#6c71c4" stroke="black" points="893,-386 719,-386 719,-350 893,-350 893,-386"/>
<text text-anchor="middle" x="806" y="-364.3" font-family="Times,serif" font-size="14.00" fill="white">gpdb5&#45;centos7&#45;test&#45;pxf:latest</text>
</g>
<!-- gp5_centos7_pxf_sha&#45;&gt;gp5_centos7_pxf_latest -->
<g id="edge3" class="edge">
<title>gp5_centos7_pxf_sha&#45;&gt;gp5_centos7_pxf_latest</title>
<path fill="none" stroke="black" d="M695.93,-436.8C717.06,-423.78 746.28,-405.78 769.31,-391.6"/>
<polygon fill="black" stroke="black" points="771.44,-394.4 778.12,-386.18 767.77,-388.44 771.44,-394.4"/>
<text text-anchor="middle" x="811" y="-407.8" font-family="Times,serif" font-size="14.00">tag (concourse pipeline)</text>
</g>
<!-- gp6_centos7_pxf_latest -->
<g id="node22" class="node">
<title>gp6_centos7_pxf_latest</title>
<polygon fill="#6c71c4" stroke="black" points="701,-386 527,-386 527,-350 701,-350 701,-386"/>
<text text-anchor="middle" x="614" y="-364.3" font-family="Times,serif" font-size="14.00" fill="white">gpdb6&#45;centos7&#45;test&#45;pxf:latest</text>
</g>
<!-- gp6_centos7_pxf_sha&#45;&gt;gp6_centos7_pxf_latest -->
<g id="edge6" class="edge">
<title>gp6_centos7_pxf_sha&#45;&gt;gp6_centos7_pxf_latest</title>
<path fill="none" stroke="black" d="M448.89,-436.8C481.82,-423.27 527.85,-404.38 562.94,-389.97"/>
<polygon fill="black" stroke="black" points="564.61,-393.07 572.53,-386.03 561.95,-386.59 564.61,-393.07"/>
<text text-anchor="middle" x="588" y="-407.8" font-family="Times,serif" font-size="14.00">tag (concourse pipeline)</text>
</g>
<!-- gp6_ubuntu18_pxf_latest -->
<g id="node23" class="node">
<title>gp6_ubuntu18_pxf_latest</title>
<polygon fill="#6c71c4" stroke="black" points="1112.5,-386 911.5,-386 911.5,-350 1112.5,-350 1112.5,-386"/>
<text text-anchor="middle" x="1012" y="-364.3" font-family="Times,serif" font-size="14.00" fill="white">gpdb6&#45;ubuntu18.04&#45;test&#45;pxf:latest</text>
</g>
<!-- gp6_ubuntu18_pxf_sha&#45;&gt;gp6_ubuntu18_pxf_latest -->
<g id="edge9" class="edge">
<title>gp6_ubuntu18_pxf_sha&#45;&gt;gp6_ubuntu18_pxf_latest</title>
<path fill="none" stroke="black" d="M956.96,-436.8C966.88,-424.59 980.35,-407.99 991.48,-394.28"/>
<polygon fill="black" stroke="black" points="994.47,-396.15 998.06,-386.18 989.04,-391.73 994.47,-396.15"/>
<text text-anchor="middle" x="1047" y="-407.8" font-family="Times,serif" font-size="14.00">tag (concourse pipeline)</text>
</g>
<!-- gp6_oel7_pxf_latest -->
<g id="node24" class="node">
<title>gp6_oel7_pxf_latest</title>
<polygon fill="#6c71c4" stroke="black" points="1287,-386 1131,-386 1131,-350 1287,-350 1287,-386"/>
<text text-anchor="middle" x="1209" y="-364.3" font-family="Times,serif" font-size="14.00" fill="white">gpdb6&#45;oel7&#45;test&#45;pxf:latest</text>
</g>
<!-- gp6_oel7_pxf_sha&#45;&gt;gp6_oel7_pxf_latest -->
<g id="edge12" class="edge">
<title>gp6_oel7_pxf_sha&#45;&gt;gp6_oel7_pxf_latest</title>
<path fill="none" stroke="black" d="M1209,-436.8C1209,-425.16 1209,-409.55 1209,-396.24"/>
<polygon fill="black" stroke="black" points="1212.5,-396.18 1209,-386.18 1205.5,-396.18 1212.5,-396.18"/>
<text text-anchor="middle" x="1275" y="-407.8" font-family="Times,serif" font-size="14.00">tag (concourse pipeline)</text>
</g>
<!-- gp7_centos7_pxf_latest -->
<g id="node25" class="node">
<title>gp7_centos7_pxf_latest</title>
<polygon fill="#6c71c4" stroke="black" points="1699,-386 1525,-386 1525,-350 1699,-350 1699,-386"/>
<text text-anchor="middle" x="1612" y="-364.3" font-family="Times,serif" font-size="14.00" fill="white">gpdb7&#45;centos7&#45;test&#45;pxf:latest</text>
</g>
<!-- gp7_centos7_pxf_sha&#45;&gt;gp7_centos7_pxf_latest -->
<g id="edge15" class="edge">
<title>gp7_centos7_pxf_sha&#45;&gt;gp7_centos7_pxf_latest</title>
<path fill="none" stroke="black" d="M1684.78,-436.92C1672.93,-432.2 1661.13,-426.3 1651,-419 1642.02,-412.53 1634.08,-403.44 1627.75,-394.78"/>
<polygon fill="black" stroke="black" points="1630.52,-392.63 1621.97,-386.37 1624.75,-396.59 1630.52,-392.63"/>
<text text-anchor="middle" x="1717" y="-407.8" font-family="Times,serif" font-size="14.00">tag (concourse pipeline)</text>
</g>
<!-- gp7_ubuntu18_pxf_latest -->
<g id="node26" class="node">
<title>gp7_ubuntu18_pxf_latest</title>
<polygon fill="#6c71c4" stroke="black" points="1506.5,-386 1305.5,-386 1305.5,-350 1506.5,-350 1506.5,-386"/>
<text text-anchor="middle" x="1406" y="-364.3" font-family="Times,serif" font-size="14.00" fill="white">gpdb7&#45;ubuntu18.04&#45;test&#45;pxf:latest</text>
</g>
<!-- gp7_ubuntu18_pxf_sha&#45;&gt;gp7_ubuntu18_pxf_latest -->
<g id="edge18" class="edge">
<title>gp7_ubuntu18_pxf_sha&#45;&gt;gp7_ubuntu18_pxf_latest</title>
<path fill="none" stroke="black" d="M1461.04,-436.8C1451.12,-424.59 1437.65,-407.99 1426.52,-394.28"/>
<polygon fill="black" stroke="black" points="1428.96,-391.73 1419.94,-386.18 1423.53,-396.15 1428.96,-391.73"/>
<text text-anchor="middle" x="1510" y="-407.8" font-family="Times,serif" font-size="14.00">tag (concourse pipeline)</text>
</g>
<!-- certification -->
<g id="node28" class="node">
<title>certification</title>
<polygon fill="#d33682" stroke="black" points="1025.5,-255 944.5,-255 944.5,-219 1025.5,-219 1025.5,-255"/>
<text text-anchor="middle" x="985" y="-233.3" font-family="Times,serif" font-size="14.00" fill="white">certification</text>
</g>
<!-- gp5_centos7_pxf_latest&#45;&gt;certification -->
<g id="edge28" class="edge">
<title>gp5_centos7_pxf_latest&#45;&gt;certification</title>
<path fill="none" stroke="black" d="M832.79,-349.9C847.63,-341.17 866.74,-331.13 885,-325 906.34,-317.84 916.21,-329.38 935,-317 953.87,-304.57 967,-282.29 975.06,-264.56"/>
<polygon fill="black" stroke="black" points="978.32,-265.84 979.02,-255.26 971.88,-263.09 978.32,-265.84"/>
</g>
<!-- build -->
<g id="node31" class="node">
<title>build</title>
<polygon fill="#d33682" stroke="black" points="1231.5,-255 1164.5,-255 1164.5,-219 1231.5,-219 1231.5,-255"/>
<text text-anchor="middle" x="1198" y="-233.3" font-family="Times,serif" font-size="14.00" fill="white">pxf&#45;build</text>
</g>
<!-- gp5_centos7_pxf_latest&#45;&gt;build -->
<g id="edge29" class="edge">
<title>gp5_centos7_pxf_latest&#45;&gt;build</title>
<path fill="none" stroke="black" d="M848.32,-349.93C865.08,-343.88 884.69,-337.67 903,-334 930.63,-328.47 1132.35,-332.31 1156,-317 1174.18,-305.23 1185.01,-282.85 1191.11,-264.91"/>
<polygon fill="black" stroke="black" points="1194.49,-265.82 1194.1,-255.23 1187.81,-263.75 1194.49,-265.82"/>
</g>
<!-- pr -->
<g id="node32" class="node">
<title>pr</title>
<polygon fill="#d33682" stroke="black" points="1146.5,-255 1043.5,-255 1043.5,-219 1146.5,-219 1146.5,-255"/>
<text text-anchor="middle" x="1095" y="-233.3" font-family="Times,serif" font-size="14.00" fill="white">pxf_pr_pipeline</text>
</g>
<!-- gp5_centos7_pxf_latest&#45;&gt;pr -->
<g id="edge30" class="edge">
<title>gp5_centos7_pxf_latest&#45;&gt;pr</title>
<path fill="none" stroke="black" d="M853.61,-349.93C869.25,-344.55 886.79,-338.77 903,-334 918.82,-329.34 922.73,-327.69 939,-325 960.12,-321.5 1016.24,-327.3 1035,-317 1056.34,-305.28 1072.41,-282.42 1082.52,-264.29"/>
<polygon fill="black" stroke="black" points="1085.68,-265.8 1087.26,-255.32 1079.49,-262.53 1085.68,-265.8"/>
</g>
<!-- mapr_dockerfile -->
<g id="node34" class="node">
<title>mapr_dockerfile</title>
<polygon fill="#fdf6e3" stroke="black" points="547,-255 479,-255 479,-219 553,-219 553,-249 547,-255"/>
<polyline fill="none" stroke="black" points="547,-255 547,-249 "/>
<polyline fill="none" stroke="black" points="553,-249 547,-249 "/>
<text text-anchor="middle" x="516" y="-233.3" font-family="Times,serif" font-size="14.00">Dockerfile</text>
</g>
<!-- gp5_centos7_pxf_latest&#45;&gt;mapr_dockerfile -->
<g id="edge21" class="edge">
<title>gp5_centos7_pxf_latest&#45;&gt;mapr_dockerfile</title>
<path fill="none" stroke="black" d="M762.6,-349.87C746.33,-344.04 727.53,-337.99 710,-334 678.37,-326.8 592.38,-334.4 565,-317 545.92,-304.87 533.05,-282.37 525.31,-264.47"/>
<polygon fill="black" stroke="black" points="528.51,-263.06 521.53,-255.1 522.02,-265.68 528.51,-263.06"/>
</g>
<!-- gp6_centos7_pxf_latest&#45;&gt;certification -->
<g id="edge31" class="edge">
<title>gp6_centos7_pxf_latest&#45;&gt;certification</title>
<path fill="none" stroke="black" d="M650.46,-349.93C671.94,-340.74 699.94,-330.24 726,-325 748.78,-320.42 914.86,-328.6 935,-317 954.82,-305.59 967.97,-282.81 975.79,-264.63"/>
<polygon fill="black" stroke="black" points="979.13,-265.69 979.59,-255.1 972.63,-263.09 979.13,-265.69"/>
</g>
<!-- perf -->
<g id="node29" class="node">
<title>perf</title>
<polygon fill="#d33682" stroke="black" points="840,-255 786,-255 786,-219 840,-219 840,-255"/>
<text text-anchor="middle" x="813" y="-233.3" font-family="Times,serif" font-size="14.00" fill="white">perf</text>
</g>
<!-- gp6_centos7_pxf_latest&#45;&gt;perf -->
<g id="edge33" class="edge">
<title>gp6_centos7_pxf_latest&#45;&gt;perf</title>
<path fill="none" stroke="black" d="M628.62,-349.7C637.32,-340.68 649.15,-330.42 662,-325 682.54,-316.33 742.86,-328.44 762,-317 781.63,-305.27 795.04,-282.73 803.17,-264.72"/>
<polygon fill="black" stroke="black" points="806.49,-265.85 807.15,-255.27 800.04,-263.13 806.49,-265.85"/>
</g>
<!-- longevity -->
<g id="node30" class="node">
<title>longevity</title>
<polygon fill="#d33682" stroke="black" points="926,-255 858,-255 858,-219 926,-219 926,-255"/>
<text text-anchor="middle" x="892" y="-233.3" font-family="Times,serif" font-size="14.00" fill="white">longevity</text>
</g>
<!-- gp6_centos7_pxf_latest&#45;&gt;longevity -->
<g id="edge32" class="edge">
<title>gp6_centos7_pxf_latest&#45;&gt;longevity</title>
<path fill="none" stroke="black" d="M638.08,-349.97C652.44,-340.79 671.44,-330.29 690,-325 707.01,-320.15 834.03,-326.42 849,-317 867.43,-305.41 878.54,-283.02 884.84,-265.02"/>
<polygon fill="black" stroke="black" points="888.23,-265.9 887.93,-255.31 881.56,-263.78 888.23,-265.9"/>
</g>
<!-- gp6_centos7_pxf_latest&#45;&gt;build -->
<g id="edge34" class="edge">
<title>gp6_centos7_pxf_latest&#45;&gt;build</title>
<path fill="none" stroke="black" d="M654.87,-349.99C671.65,-343.79 691.46,-337.46 710,-334 734.37,-329.45 1134.99,-330.17 1156,-317 1174.46,-305.43 1185.3,-282.82 1191.33,-264.75"/>
<polygon fill="black" stroke="black" points="1194.73,-265.59 1194.27,-255.01 1188.03,-263.57 1194.73,-265.59"/>
</g>
<!-- gp6_centos7_pxf_latest&#45;&gt;pr -->
<g id="edge35" class="edge">
<title>gp6_centos7_pxf_latest&#45;&gt;pr</title>
<path fill="none" stroke="black" d="M660.01,-349.83C675.73,-344.33 693.51,-338.5 710,-334 729.26,-328.74 734.17,-327.29 754,-325 769.51,-323.21 1021.11,-324.14 1035,-317 1056.78,-305.8 1072.88,-282.67 1082.89,-264.31"/>
<polygon fill="black" stroke="black" points="1086.09,-265.73 1087.56,-255.24 1079.87,-262.52 1086.09,-265.73"/>
</g>
<!-- server_dockerfile -->
<g id="node33" class="node">
<title>server_dockerfile</title>
<polygon fill="#fdf6e3" stroke="black" points="645,-255 577,-255 577,-219 651,-219 651,-249 645,-255"/>
<polyline fill="none" stroke="black" points="645,-255 645,-249 "/>
<polyline fill="none" stroke="black" points="651,-249 645,-249 "/>
<text text-anchor="middle" x="614" y="-233.3" font-family="Times,serif" font-size="14.00">Dockerfile</text>
</g>
<!-- gp6_centos7_pxf_latest&#45;&gt;server_dockerfile -->
<g id="edge25" class="edge">
<title>gp6_centos7_pxf_latest&#45;&gt;server_dockerfile</title>
<path fill="none" stroke="black" d="M614,-349.87C614,-328.28 614,-290.91 614,-265.35"/>
<polygon fill="black" stroke="black" points="617.5,-265.2 614,-255.2 610.5,-265.2 617.5,-265.2"/>
</g>
<!-- gp6_centos7_pxf_latest&#45;&gt;mapr_dockerfile -->
<g id="edge22" class="edge">
<title>gp6_centos7_pxf_latest&#45;&gt;mapr_dockerfile</title>
<path fill="none" stroke="black" d="M595.3,-349.83C585.71,-340.57 574.15,-328.67 565,-317 551.84,-300.23 539.22,-279.73 530.08,-263.82"/>
<polygon fill="black" stroke="black" points="533.09,-262.03 525.12,-255.05 526.99,-265.48 533.09,-262.03"/>
</g>
<!-- gp6_ubuntu18_pxf_latest&#45;&gt;certification -->
<g id="edge36" class="edge">
<title>gp6_ubuntu18_pxf_latest&#45;&gt;certification</title>
<path fill="none" stroke="black" d="M1008.41,-349.87C1003.88,-328.18 996,-290.58 990.65,-265.01"/>
<polygon fill="black" stroke="black" points="994.07,-264.27 988.6,-255.2 987.22,-265.71 994.07,-264.27"/>
</g>
<!-- gp6_ubuntu18_pxf_latest&#45;&gt;build -->
<g id="edge37" class="edge">
<title>gp6_ubuntu18_pxf_latest&#45;&gt;build</title>
<path fill="none" stroke="black" d="M1067.2,-349.97C1104.72,-338.03 1148.81,-323.15 1156,-317 1172.08,-303.23 1182.94,-281.74 1189.58,-264.65"/>
<polygon fill="black" stroke="black" points="1192.89,-265.78 1193.01,-255.18 1186.31,-263.39 1192.89,-265.78"/>
</g>
<!-- gp6_ubuntu18_pxf_latest&#45;&gt;pr -->
<g id="edge38" class="edge">
<title>gp6_ubuntu18_pxf_latest&#45;&gt;pr</title>
<path fill="none" stroke="black" d="M1023.02,-349.87C1037.22,-327.8 1062.03,-289.24 1078.49,-263.66"/>
<polygon fill="black" stroke="black" points="1081.47,-265.5 1083.93,-255.2 1075.58,-261.72 1081.47,-265.5"/>
</g>
<!-- gp6_oel7_pxf_latest&#45;&gt;build -->
<g id="edge39" class="edge">
<title>gp6_oel7_pxf_latest&#45;&gt;build</title>
<path fill="none" stroke="black" d="M1207.54,-349.87C1205.7,-328.28 1202.51,-290.91 1200.33,-265.35"/>
<polygon fill="black" stroke="black" points="1203.8,-264.87 1199.47,-255.2 1196.83,-265.46 1203.8,-264.87"/>
</g>
<!-- gp6_oel7_pxf_latest&#45;&gt;pr -->
<g id="edge40" class="edge">
<title>gp6_oel7_pxf_latest&#45;&gt;pr</title>
<path fill="none" stroke="black" d="M1189.41,-349.87C1179.09,-340.52 1166.45,-328.53 1156,-317 1140.59,-299.99 1124.79,-279.43 1113.14,-263.55"/>
<polygon fill="black" stroke="black" points="1115.83,-261.29 1107.12,-255.26 1110.16,-265.41 1115.83,-261.29"/>
</g>
<!-- gp7_centos7_pxf_latest&#45;&gt;build -->
<g id="edge41" class="edge">
<title>gp7_centos7_pxf_latest&#45;&gt;build</title>
<path fill="none" stroke="black" d="M1563.28,-349.85C1548.17,-344.64 1531.43,-338.98 1516,-334 1418.26,-302.46 1302.62,-268.35 1241.28,-250.5"/>
<polygon fill="black" stroke="black" points="1242.13,-247.1 1231.55,-247.67 1240.18,-253.83 1242.13,-247.1"/>
</g>
<!-- gp7_centos7_pxf_latest&#45;&gt;pr -->
<g id="edge42" class="edge">
<title>gp7_centos7_pxf_latest&#45;&gt;pr</title>
<path fill="none" stroke="black" d="M1570.64,-349.91C1553.96,-343.77 1534.35,-337.51 1516,-334 1476.67,-326.47 1191.52,-335.5 1156,-317 1134.14,-305.62 1117.75,-282.5 1107.49,-264.2"/>
<polygon fill="black" stroke="black" points="1110.47,-262.35 1102.69,-255.16 1104.28,-265.63 1110.47,-262.35"/>
</g>
<!-- gp7_ubuntu18_pxf_latest&#45;&gt;build -->
<g id="edge43" class="edge">
<title>gp7_ubuntu18_pxf_latest&#45;&gt;build</title>
<path fill="none" stroke="black" d="M1378.38,-349.87C1341.32,-326.88 1275.41,-286.01 1234.35,-260.54"/>
<polygon fill="black" stroke="black" points="1236.08,-257.5 1225.74,-255.2 1232.39,-263.45 1236.08,-257.5"/>
</g>
<!-- gp7_ubuntu18_pxf_latest&#45;&gt;pr -->
<g id="edge44" class="edge">
<title>gp7_ubuntu18_pxf_latest&#45;&gt;pr</title>
<path fill="none" stroke="black" d="M1355.81,-349.98C1337.2,-344.19 1315.81,-338.14 1296,-334 1265.32,-327.59 1183.24,-332.49 1156,-317 1134.71,-304.89 1118.33,-282.07 1107.93,-264.05"/>
<polygon fill="black" stroke="black" points="1110.93,-262.24 1103.05,-255.15 1104.79,-265.6 1110.93,-262.24"/>
</g>
<!-- rpm_centos7_latest&#45;&gt;build -->
<g id="edge45" class="edge">
<title>rpm_centos7_latest&#45;&gt;build</title>
<path fill="none" stroke="black" d="M1960.41,-436.67C1949.2,-409.75 1923.68,-358.46 1884,-334 1775.48,-267.11 1376.21,-245.17 1242.2,-239.6"/>
<polygon fill="black" stroke="black" points="1242.04,-236.1 1231.9,-239.19 1241.75,-243.09 1242.04,-236.1"/>
</g>
<!-- gp6_centos7_pxf_hdp2_sha -->
<g id="node37" class="node">
<title>gp6_centos7_pxf_hdp2_sha</title>
<polygon fill="none" stroke="black" points="754,-147 402,-147 402,-111 754,-111 754,-147"/>
<text text-anchor="middle" x="578" y="-125.3" font-family="Times,serif" font-size="14.00">gpdb&#45;pxf&#45;dev/gpdb6&#45;centos7&#45;test&#45;pxf&#45;hdp2:$COMMIT_SHA</text>
</g>
<!-- server_dockerfile&#45;&gt;gp6_centos7_pxf_hdp2_sha -->
<g id="edge26" class="edge">
<title>server_dockerfile&#45;&gt;gp6_centos7_pxf_hdp2_sha</title>
<path fill="none" stroke="black" d="M608.22,-218.97C602.53,-202.22 593.76,-176.41 587.13,-156.89"/>
<polygon fill="black" stroke="black" points="590.42,-155.68 583.89,-147.34 583.79,-157.93 590.42,-155.68"/>
<text text-anchor="middle" x="772.5" y="-189.8" font-family="Times,serif" font-size="14.00">CloudBuild (add singlecluster, build deps, &amp; automation deps)</text>
</g>
<!-- gp6_centos7_pxf_mapr_sha -->
<g id="node35" class="node">
<title>gp6_centos7_pxf_mapr_sha</title>
<polygon fill="none" stroke="black" points="377.5,-147 24.5,-147 24.5,-111 377.5,-111 377.5,-147"/>
<text text-anchor="middle" x="201" y="-125.3" font-family="Times,serif" font-size="14.00">gpdb&#45;pxf&#45;dev/gpdb6&#45;centos7&#45;test&#45;pxf&#45;mapr:$COMMIT_SHA</text>
</g>
<!-- mapr_dockerfile&#45;&gt;gp6_centos7_pxf_mapr_sha -->
<g id="edge23" class="edge">
<title>mapr_dockerfile&#45;&gt;gp6_centos7_pxf_mapr_sha</title>
<path fill="none" stroke="black" d="M478.94,-223.53C425.34,-205.49 325.58,-171.92 261.29,-150.29"/>
<polygon fill="black" stroke="black" points="262.28,-146.93 251.68,-147.06 260.05,-153.56 262.28,-146.93"/>
<text text-anchor="middle" x="480" y="-189.8" font-family="Times,serif" font-size="14.00">CloudBuild (install MapR)</text>
</g>
<!-- gp6_centos7_pxf_mapr_latest -->
<g id="node36" class="node">
<title>gp6_centos7_pxf_mapr_latest</title>
<polygon fill="#6c71c4" stroke="black" points="369,-60 85,-60 85,-24 369,-24 369,-60"/>
<text text-anchor="middle" x="227" y="-38.3" font-family="Times,serif" font-size="14.00" fill="white">gpdb&#45;pxf&#45;dev/gpdb6&#45;centos7&#45;test&#45;pxf&#45;mapr:latest</text>
</g>
<!-- gp6_centos7_pxf_mapr_sha&#45;&gt;gp6_centos7_pxf_mapr_latest -->
<g id="edge24" class="edge">
<title>gp6_centos7_pxf_mapr_sha&#45;&gt;gp6_centos7_pxf_mapr_latest</title>
<path fill="none" stroke="black" d="M206.26,-110.8C209.86,-99.05 214.69,-83.24 218.79,-69.84"/>
<polygon fill="black" stroke="black" points="222.17,-70.76 221.75,-60.18 215.47,-68.71 222.17,-70.76"/>
<text text-anchor="middle" x="282" y="-81.8" font-family="Times,serif" font-size="14.00">tag (concourse pipeline)</text>
</g>
<!-- gp6_centos7_pxf_mapr_latest&#45;&gt;build -->
<g id="edge46" class="edge">
<title>gp6_centos7_pxf_mapr_latest&#45;&gt;build</title>
<path fill="none" stroke="black" d="M369.1,-58.88C502.56,-74.17 692.4,-96.98 766,-111 941.78,-144.49 990.77,-142.31 1156,-211 1158.33,-211.97 1160.69,-213.05 1163.03,-214.21"/>
<polygon fill="black" stroke="black" points="1161.46,-217.33 1171.94,-218.94 1164.75,-211.15 1161.46,-217.33"/>
<text text-anchor="middle" x="1190" y="-125.3" font-family="Times,serif" font-size="14.00">Conditionally added based off mapr variable</text>
</g>
<!-- gp6_centos7_pxf_hdp2_latest -->
<g id="node38" class="node">
<title>gp6_centos7_pxf_hdp2_latest</title>
<polygon fill="#b58900" stroke="black" points="703.5,-60 452.5,-60 452.5,-24 703.5,-24 703.5,-60"/>
<text text-anchor="middle" x="578" y="-38.3" font-family="Times,serif" font-size="14.00" fill="white">gpdb&#45;pxf&#45;dev/gpdb6&#45;centos7&#45;test&#45;pxf&#45;hdp2</text>
</g>
<!-- gp6_centos7_pxf_hdp2_sha&#45;&gt;gp6_centos7_pxf_hdp2_latest -->
<g id="edge27" class="edge">
<title>gp6_centos7_pxf_hdp2_sha&#45;&gt;gp6_centos7_pxf_hdp2_latest</title>
<path fill="none" stroke="black" d="M578,-110.8C578,-99.16 578,-83.55 578,-70.24"/>
<polygon fill="black" stroke="black" points="581.5,-70.18 578,-60.18 574.5,-70.18 581.5,-70.18"/>
</g>
</g>
</svg>
